<svg width="17" height="18" viewBox="0 0 17 18" fill="none" xmlns="http://www.w3.org/2000/svg">
<path d="M1.00865 14.9392L0.262025 14.8681L1.00865 14.9392ZM15.6749 14.9392L16.4216 14.8681L15.6749 14.9392ZM14.9578 7.40977L14.2112 7.48088L14.9578 7.40977ZM1.72573 7.40977L2.47235 7.48088L1.72573 7.40977ZM3.82708 8.52941C3.82708 8.94363 4.16287 9.27941 4.57708 9.27941C4.9913 9.27941 5.32708 8.94363 5.32708 8.52941H3.82708ZM11.3565 8.52941C11.3565 8.94363 11.6923 9.27941 12.1065 9.27941C12.5207 9.27941 12.8565 8.94363 12.8565 8.52941H11.3565ZM3.59961 6.45588H13.084V4.95588H3.59961V6.45588ZM14.2112 7.48088L14.9283 15.0103L16.4216 14.8681L15.7045 7.33866L14.2112 7.48088ZM13.8011 16.25H2.88252V17.75H13.8011V16.25ZM1.75527 15.0103L2.47235 7.48088L0.979112 7.33867L0.262025 14.8681L1.75527 15.0103ZM2.88252 16.25C2.21473 16.25 1.69195 15.6751 1.75527 15.0103L0.262025 14.8681C0.114843 16.4135 1.33011 17.75 2.88252 17.75V16.25ZM14.9283 15.0103C14.9916 15.6751 14.4689 16.25 13.8011 16.25V17.75C15.3535 17.75 16.5687 16.4135 16.4216 14.8681L14.9283 15.0103ZM13.084 6.45588C13.6678 6.45588 14.1559 6.89971 14.2112 7.48088L15.7045 7.33866C15.5758 5.98765 14.4411 4.95588 13.084 4.95588V6.45588ZM3.59961 4.95588C2.24248 4.95588 1.10778 5.98765 0.979112 7.33867L2.47235 7.48088C2.5277 6.89971 3.01581 6.45588 3.59961 6.45588V4.95588ZM5.32708 4.76471C5.32708 3.09973 6.67681 1.75 8.34179 1.75V0.25C5.84839 0.25 3.82708 2.2713 3.82708 4.76471H5.32708ZM8.34179 1.75C10.0068 1.75 11.3565 3.09973 11.3565 4.76471H12.8565C12.8565 2.2713 10.8352 0.25 8.34179 0.25V1.75ZM3.82708 4.76471V8.52941H5.32708V4.76471H3.82708ZM11.3565 4.76471V8.52941H12.8565V4.76471H11.3565Z" fill="#C0BBCA"/>
</svg>
