<svg width="24" height="24" viewBox="0 0 24 24" fill="none" xmlns="http://www.w3.org/2000/svg">
<path d="M5.00865 17.9392L4.26202 17.8681L5.00865 17.9392ZM19.6749 17.9392L20.4216 17.8681L19.6749 17.9392ZM18.9578 10.4098L18.2112 10.4809L18.9578 10.4098ZM5.72573 10.4098L6.47235 10.4809L5.72573 10.4098ZM7.82708 11.5294C7.82708 11.9436 8.16287 12.2794 8.57708 12.2794C8.9913 12.2794 9.32708 11.9436 9.32708 11.5294H7.82708ZM15.3565 11.5294C15.3565 11.9436 15.6923 12.2794 16.1065 12.2794C16.5207 12.2794 16.8565 11.9436 16.8565 11.5294H15.3565ZM7.59961 9.45588H17.084V7.95588H7.59961V9.45588ZM18.2112 10.4809L18.9283 18.0103L20.4216 17.8681L19.7045 10.3387L18.2112 10.4809ZM17.8011 19.25H6.88252V20.75H17.8011V19.25ZM5.75527 18.0103L6.47235 10.4809L4.97911 10.3387L4.26202 17.8681L5.75527 18.0103ZM6.88252 19.25C6.21473 19.25 5.69195 18.6751 5.75527 18.0103L4.26202 17.8681C4.11484 19.4135 5.33011 20.75 6.88252 20.75V19.25ZM18.9283 18.0103C18.9916 18.6751 18.4689 19.25 17.8011 19.25V20.75C19.3535 20.75 20.5687 19.4135 20.4216 17.8681L18.9283 18.0103ZM17.084 9.45588C17.6678 9.45588 18.1559 9.89971 18.2112 10.4809L19.7045 10.3387C19.5758 8.98765 18.4411 7.95588 17.084 7.95588V9.45588ZM7.59961 7.95588C6.24248 7.95588 5.10778 8.98765 4.97911 10.3387L6.47235 10.4809C6.5277 9.89971 7.01581 9.45588 7.59961 9.45588V7.95588ZM9.32708 7.76471C9.32708 6.09973 10.6768 4.75 12.3418 4.75V3.25C9.84839 3.25 7.82708 5.2713 7.82708 7.76471H9.32708ZM12.3418 4.75C14.0068 4.75 15.3565 6.09973 15.3565 7.76471H16.8565C16.8565 5.2713 14.8352 3.25 12.3418 3.25V4.75ZM7.82708 7.76471V11.5294H9.32708V7.76471H7.82708ZM15.3565 7.76471V11.5294H16.8565V7.76471H15.3565Z" fill="#C0BBCA"/>
</svg>
