<svg width="163" height="160" viewBox="0 0 163 160" fill="none" xmlns="http://www.w3.org/2000/svg">
<g clip-path="url(#clip0_1313_29545)">
<path d="M22.3824 114.424C20.2058 113.408 18.2458 111.983 16.6099 110.225C15.3591 108.881 14.3182 107.355 13.5223 105.701C12.8762 104.378 12.4015 102.978 12.1097 101.536C11.9236 100.652 11.8473 99.9452 12.2714 99.4851C12.6955 99.025 13.3698 99.0402 13.6871 99.0646C13.0082 98.3313 12.4417 97.5016 12.006 96.6027C11.6032 95.7678 11.1822 94.8964 11.2097 93.7112C11.2231 93.1494 11.3325 92.594 11.5331 92.0689C10.6364 90.8133 9.84065 89.4888 9.15328 88.1079C8.08898 85.9644 7.30162 83.6945 6.81011 81.3528C6.54642 79.8926 6.43903 78.4086 6.48975 76.9257C6.46583 76.2918 6.63613 75.6657 6.97791 75.131C7.0908 74.9635 7.61862 74.1956 8.44239 74.153C8.59189 74.153 9.05259 74.153 9.8245 74.7624C10.7703 75.5363 11.0449 76.3498 11.8015 77.7301C12.2073 78.4613 12.6955 79.1438 13.1348 79.8629C13.7877 80.9202 14.7488 82.4711 15.9997 84.479C15.0631 83.4979 14.7976 82.1999 15.2949 81.2797C15.539 80.8562 15.9135 80.5227 16.3628 80.3291C16.1595 79.6968 16.0155 79.0471 15.9326 78.3882C15.8058 77.4328 15.8378 76.463 16.0272 75.518C16.2987 74.1987 16.6892 73.9702 16.8082 73.9123C17.1398 73.7773 17.511 73.7773 17.8425 73.9123C18.9104 74.2901 19.3375 75.6673 19.5358 76.2706C20.146 78.178 21.3664 79.8599 22.0468 81.755C23.4381 85.5515 23.4198 84.6222 25.2443 89.351C26.0528 91.4412 27.0749 94.2261 28.0878 97.5777L22.3824 114.424Z" fill="white"/>
<path d="M126.922 108.273C126.985 106.575 127.189 104.885 127.532 103.221C127.688 102.385 127.93 101.569 128.255 100.783C128.594 99.9195 129.063 99.1129 129.646 98.3914C130.392 97.4999 131.316 96.7735 132.359 96.2586C132.557 95.478 132.892 94.7384 133.347 94.0739C134.104 92.9865 135.152 92.1334 136.371 91.612C136.36 90.6205 136.585 89.6407 137.03 88.754C137.644 87.5606 138.623 86.5937 139.825 85.9935C140.24 84.712 140.765 83.4684 141.393 82.2762C142.393 80.378 143.297 79.2994 144.621 77.7058C145.994 76.0635 146.61 75.6156 147.132 75.7558C147.653 75.896 147.913 76.5724 147.974 76.7369C148.23 77.4438 147.995 78.105 147.858 78.5346C147.51 79.6437 147.519 80.8381 147.248 81.9624C146.842 83.5773 146.296 86.0818 145.527 89.9118C145.542 89.4567 145.7 89.0179 145.979 88.6575C146.258 88.2971 146.643 88.0335 147.08 87.9039C147.354 87.8445 147.638 87.8408 147.913 87.8932C148.189 87.9455 148.451 88.0528 148.685 88.2086C148.715 88.172 149.472 87.2945 150.357 87.4895C151.04 87.6449 151.351 88.3396 151.492 88.6473C151.845 89.4304 151.748 90.1434 151.412 92.0386C151.135 93.5986 150.997 94.3786 150.936 94.6193C149.591 99.9423 146.381 107.477 146.381 107.477C145.402 109.775 143.992 113.148 142.348 117.368L126.922 108.273Z" fill="white"/>
<path d="M133.329 96.3559C133.329 96.4412 132.484 96.4686 131.373 97.1542C130.731 97.5592 130.165 98.075 129.704 98.6776C129.146 99.4191 128.703 100.241 128.392 101.115C128.078 102.004 127.827 102.915 127.642 103.839C127.462 104.695 127.336 105.472 127.245 106.127C127.065 107.441 127.007 108.26 126.94 108.26C126.873 108.26 126.809 107.428 126.903 106.088C126.962 105.303 127.064 104.522 127.208 103.748C127.372 102.793 127.617 101.854 127.941 100.942C128.267 100.013 128.748 99.1455 129.362 98.376C129.873 97.7514 130.503 97.2337 131.214 96.8525C131.688 96.5932 132.205 96.4209 132.74 96.3437C133.109 96.2828 133.329 96.3254 133.329 96.3559Z" fill="#7C7A7D" stroke="#7C7A7D" stroke-width="0.5" stroke-miterlimit="10"/>
<path d="M138.271 112.797C138.316 112.58 138.38 112.368 138.464 112.163C138.61 111.755 138.824 111.152 139.101 110.378C139.651 108.827 140.447 106.584 141.353 103.787C143.716 96.4992 145.621 89.0705 147.055 81.5448C147.269 80.4418 147.461 79.351 147.647 78.2755C147.69 78.0043 147.748 77.7392 147.763 77.4924C147.783 77.2431 147.771 76.9924 147.73 76.7459C147.7 76.5231 147.61 76.3125 147.47 76.1365C147.405 76.0698 147.325 76.0199 147.236 75.9912C147.147 75.9626 147.053 75.9559 146.961 75.972C146.567 76.039 146.192 76.4564 145.817 76.7977C145.441 77.139 145.087 77.5168 144.746 77.8885C144.079 78.616 143.462 79.3877 142.9 80.1981C141.858 81.6985 141.005 83.3216 140.361 85.0305C140.285 85.2285 140.212 85.4296 140.145 85.6399L140.035 85.9628L139.995 86.0847C139.98 86.1243 139.925 86.1304 139.895 86.1548L139.718 86.2432C139.364 86.4231 139.031 86.6418 138.726 86.8952C137.613 87.8133 136.861 89.0958 136.606 90.5149C136.577 90.6711 136.556 90.8288 136.545 90.9872C136.534 91.064 136.528 91.1413 136.526 91.2188V91.4839V91.6545C136.526 91.6911 136.496 91.6911 136.471 91.7032L136.395 91.7368L136.142 91.8495C136.005 91.9074 135.879 91.9775 135.751 92.0414C134.884 92.5123 134.128 93.1651 133.536 93.9549C133.161 94.4546 132.853 95.0017 132.621 95.582C132.551 95.7895 132.47 95.9929 132.377 96.1914C132.377 96.1914 132.377 96.1335 132.398 96.0238C132.43 95.8606 132.473 95.6997 132.526 95.5424C132.725 94.934 133.014 94.3588 133.384 93.8361C133.967 92.9974 134.73 92.299 135.617 91.7916C135.751 91.7246 135.883 91.6454 136.023 91.5814L136.188 91.5052C136.203 91.5052 136.233 91.5052 136.233 91.4717V91.2035C136.233 91.1213 136.233 91.039 136.233 90.9567C136.244 90.7893 136.263 90.6225 136.291 90.4571C136.401 89.7454 136.636 89.0585 136.984 88.4278C137.363 87.73 137.87 87.1098 138.479 86.5996C138.801 86.3235 139.155 86.0853 139.532 85.8897L139.635 85.8349C139.657 85.8349 139.663 85.8105 139.666 85.7922L139.757 85.5119C139.824 85.3078 139.895 85.1036 139.971 84.9025C140.609 83.1526 141.466 81.4901 142.522 79.9543C143.089 79.1218 143.714 78.3298 144.392 77.5838C144.74 77.2029 145.1 76.8282 145.481 76.4656C145.676 76.2858 145.853 76.103 146.07 75.9232C146.299 75.7174 146.577 75.5746 146.878 75.5089C147.049 75.4782 147.224 75.49 147.389 75.5431C147.554 75.5962 147.704 75.6891 147.824 75.8135C148.031 76.0537 148.165 76.3474 148.212 76.6606C148.261 76.9473 148.275 77.2388 148.254 77.529C148.227 77.8082 148.185 78.0858 148.129 78.3608C147.946 79.4394 147.754 80.5363 147.54 81.6393C146.108 89.1802 144.152 96.6123 141.686 103.882C140.734 106.67 139.885 108.9 139.278 110.433C138.973 111.197 138.726 111.786 138.555 112.185C138.484 112.399 138.389 112.604 138.271 112.797Z" fill="#7C7A7D" stroke="#7C7A7D" stroke-width="0.5" stroke-miterlimit="10"/>
<path d="M142.671 116.587C142.795 116.086 142.959 115.594 143.162 115.119C143.51 114.183 144.026 112.837 144.688 111.179C145.35 109.522 146.122 107.55 146.988 105.36C147.855 103.169 148.819 100.774 149.673 98.2023C150.505 95.754 151.061 93.2205 151.33 90.649C151.351 90.3443 151.385 90.0548 151.397 89.7806C151.402 89.5089 151.38 89.2373 151.33 88.9701C151.241 88.4522 151.025 87.9494 150.631 87.7514C150.44 87.6616 150.222 87.6463 150.021 87.7087C149.813 87.7761 149.629 87.8995 149.487 88.0652C149.197 88.4058 148.967 88.7932 148.806 89.2108L148.501 89.0372C148.594 88.8988 148.638 88.7329 148.624 88.5668C148.61 88.4007 148.54 88.2442 148.425 88.1231C148.326 88.0008 148.195 87.9078 148.046 87.8541C147.898 87.8005 147.738 87.7881 147.583 87.8184C147.294 87.8696 147.026 88.0029 146.811 88.2023C146.622 88.3754 146.467 88.582 146.353 88.8117C146.197 89.1376 146.074 89.4786 145.987 89.8294C145.966 89.9579 145.925 90.0823 145.865 90.198C145.852 90.0684 145.861 89.9375 145.893 89.8111C145.944 89.4383 146.047 89.0743 146.198 88.7294C146.314 88.4405 146.497 88.1835 146.733 87.9799C146.968 87.7763 147.25 87.6321 147.553 87.5594C147.748 87.5195 147.95 87.5268 148.141 87.5807C148.35 87.6439 148.537 87.7655 148.678 87.9311C148.829 88.1042 148.929 88.3149 148.968 88.5405C148.989 88.6677 148.984 88.7978 148.951 88.9227C148.919 89.0475 148.862 89.1643 148.782 89.2657L148.08 90.1188L148.489 89.089C148.653 88.6249 148.897 88.1936 149.212 87.8154C149.396 87.5964 149.635 87.4311 149.905 87.337C150.205 87.2388 150.532 87.2562 150.82 87.3857C151.103 87.5268 151.334 87.7541 151.479 88.0347C151.626 88.2997 151.729 88.5868 151.784 88.8848C151.84 89.1862 151.865 89.4925 151.857 89.7989C151.857 90.1036 151.821 90.3931 151.803 90.6977C151.555 93.3082 151.003 95.881 150.158 98.3638C149.313 100.963 148.327 103.361 147.412 105.539C146.497 107.718 145.694 109.674 145.014 111.328C144.334 112.983 143.757 114.296 143.354 115.21C143.166 115.688 142.937 116.148 142.671 116.587Z" fill="#7C7A7D" stroke="#7C7A7D" stroke-width="0.5" stroke-miterlimit="10"/>
<path d="M21.8483 95.7284C21.7003 95.5121 21.5707 95.2838 21.4608 95.0459L20.4174 93.0562C19.5021 91.3286 18.1902 88.8332 16.4511 85.8107C14.712 82.7881 12.5641 79.2354 10.0104 75.3993C9.70533 74.9331 9.34532 74.4853 8.85716 74.3938C8.59831 74.3599 8.3351 74.3887 8.08975 74.4778C7.84441 74.5669 7.62415 74.7137 7.44759 74.9057C7.07227 75.3316 6.84064 75.8646 6.78553 76.4292C6.71227 77.0357 6.69491 77.6477 6.73366 78.2573C6.92934 83.4899 8.95578 88.4883 12.4604 92.3829L12.0668 92.4286C12.0668 92.3981 12.0668 92.4072 12.0668 92.3737C12.0387 92.3286 11.9971 92.2934 11.9478 92.2732C11.8931 92.2456 11.832 92.233 11.7709 92.2366C11.7487 92.2328 11.726 92.2328 11.7037 92.2366L11.6763 92.2518L11.6397 92.2793C11.4353 92.456 11.3925 92.849 11.4169 93.2238C11.4538 93.9965 11.5934 94.7609 11.8319 95.4968C12.2864 96.9095 13.089 98.1856 14.1659 99.208L13.815 99.467C13.7355 99.3436 13.6167 99.2507 13.4777 99.2031C13.3387 99.1556 13.1878 99.1562 13.0492 99.2049C12.894 99.2379 12.7488 99.3068 12.6251 99.406C12.5043 99.5054 12.41 99.6331 12.3506 99.7778C12.2243 100.094 12.1771 100.436 12.2133 100.774C12.2435 101.127 12.3037 101.477 12.3933 101.819C12.6853 103.14 13.1276 104.423 13.7113 105.643C14.224 106.728 14.8433 107.758 15.5602 108.72C15.8806 109.174 16.2406 109.571 16.564 109.964C16.8874 110.357 17.2352 110.704 17.58 111.015C18.6147 112.024 19.7647 112.909 21.0062 113.65C21.4303 113.919 21.7751 114.089 22.0039 114.214C22.1255 114.27 22.2402 114.339 22.3456 114.421C22.2128 114.385 22.0855 114.33 21.9673 114.26C21.6121 114.111 21.2657 113.942 20.93 113.754C19.6469 113.061 18.4575 112.207 17.3908 111.213C17.0369 110.908 16.7043 110.536 16.3413 110.165C15.9782 109.793 15.6334 109.376 15.3009 108.919C14.5542 107.955 13.9071 106.919 13.3696 105.826C12.7564 104.586 12.2905 103.28 11.9814 101.932C11.8844 101.569 11.8181 101.199 11.7831 100.826C11.7395 100.419 11.795 100.007 11.9448 99.6254C12.0315 99.4189 12.1665 99.2361 12.3383 99.0922C12.5158 98.9454 12.7245 98.8412 12.9485 98.7875C13.1757 98.7318 13.4136 98.7371 13.6381 98.8027C13.76 98.841 13.8732 98.903 13.9711 98.9851C14.0691 99.0672 14.1498 99.1678 14.2086 99.2811L14.7273 100.354L13.8577 99.5431C12.7176 98.4735 11.8656 97.1343 11.3803 95.6492C11.124 94.8746 10.9732 94.069 10.9318 93.2543C10.915 93.0345 10.9253 92.8135 10.9623 92.5962C11.002 92.341 11.1254 92.1063 11.3132 91.9289L11.3925 91.8649L11.4993 91.8039C11.5728 91.7749 11.6497 91.7554 11.7281 91.7461C11.8731 91.7384 12.0178 91.7667 12.1492 91.8283C12.2889 91.8944 12.4057 92.0004 12.4848 92.133C12.5314 92.2142 12.5559 92.3061 12.5559 92.3996C12.5559 92.4932 12.5314 92.5851 12.4848 92.6662L12.3078 92.9465L12.0943 92.7119C8.49624 88.732 6.4225 83.6101 6.2394 78.2512C6.20143 77.6159 6.22288 76.9783 6.30347 76.3469C6.37583 75.6849 6.6568 75.0629 7.10588 74.5706C7.3365 74.3244 7.62372 74.138 7.94268 74.0275C8.26165 73.9171 8.60275 73.886 8.93648 73.9368C9.26829 74.012 9.57129 74.1813 9.80907 74.4243C10.0229 74.6446 10.2131 74.8866 10.3766 75.1464C12.918 79.0069 15.0415 82.587 16.744 85.637C18.4465 88.687 19.7187 91.2128 20.576 92.9679C21.0001 93.8484 21.3235 94.534 21.5341 95.0032C21.6584 95.236 21.7635 95.4785 21.8483 95.7284Z" fill="#7C7A7D" stroke="#7C7A7D" stroke-width="0.5" stroke-miterlimit="10"/>
<path d="M26.7482 92.8885C26.4843 92.4618 26.2596 92.0121 26.077 91.5449C25.6743 90.6674 25.1068 89.3876 24.4173 87.8063C23.7277 86.2249 22.9192 84.3358 22.0131 82.2396C21.5615 81.1914 21.0978 80.0823 20.6035 78.9519C20.1021 77.786 19.5115 76.6604 18.837 75.5851C18.5698 75.1695 18.2817 74.7678 17.9735 74.3816C17.8573 74.2135 17.6997 74.0782 17.5159 73.9885C17.4362 73.9586 17.3503 73.9485 17.2658 73.9591C17.1813 73.9697 17.1006 74.0007 17.0308 74.0494C16.6991 74.3119 16.465 74.6776 16.3657 75.0884C16.2608 75.5277 16.1864 75.9736 16.1429 76.423C15.989 78.0844 16.2708 79.7571 16.9606 81.2767H16.5853C16.6647 81.1244 16.5274 80.8867 16.326 80.7923C16.2331 80.741 16.1248 80.7248 16.0209 80.7466C15.9128 80.77 15.8128 80.8215 15.7311 80.8959C15.5577 81.0569 15.4438 81.2716 15.4077 81.5053C15.3747 81.7389 15.3861 81.9766 15.4412 82.206C15.548 82.6692 15.7128 83.1201 15.8317 83.5284L16.1704 84.6619C16.3748 85.3413 16.5304 85.8806 16.6311 86.2463C16.6997 86.4291 16.7408 86.6211 16.7531 86.816C16.6516 86.6491 16.5716 86.4699 16.5152 86.2828C16.3779 85.9294 16.1887 85.4053 15.9477 84.7319C15.8317 84.3968 15.7006 84.0251 15.5572 83.6198C15.4138 83.2146 15.2521 82.788 15.1178 82.2822C15.0459 82.0122 15.0253 81.7311 15.0568 81.4535C15.1002 81.1397 15.2486 80.8498 15.4778 80.6308C15.6053 80.5111 15.7621 80.4271 15.9324 80.387C16.1181 80.3441 16.3129 80.3656 16.4847 80.448C16.657 80.5296 16.8005 80.6613 16.8965 80.8258C16.9515 80.9165 16.9849 81.0186 16.9945 81.1241C17.004 81.2297 16.9893 81.3361 16.9515 81.4352L16.7806 81.8648L16.5823 81.4504C15.8343 79.8707 15.5185 78.1214 15.667 76.3803C15.7085 75.9009 15.786 75.4253 15.8989 74.9574C15.9684 74.7073 16.071 74.4675 16.204 74.2444C16.3413 74.0007 16.5335 73.792 16.7654 73.6351C16.8995 73.5483 17.0518 73.4935 17.2105 73.475C17.3693 73.4565 17.5301 73.4748 17.6807 73.5284C17.9483 73.6472 18.179 73.8355 18.3488 74.0738C18.6694 74.4723 18.9688 74.8872 19.2458 75.317C19.9377 76.4143 20.5417 77.5645 21.052 78.7569C21.5493 79.8995 21.9978 81.0086 22.4402 82.0628L24.7437 87.6722C25.3936 89.2688 25.9092 90.5668 26.2692 91.4687C26.4683 91.9278 26.6285 92.4027 26.7482 92.8885Z" fill="#7C7A7D" stroke="#7C7A7D" stroke-width="0.5" stroke-miterlimit="10"/>
<path d="M88.5522 0.776974L88.7262 62.8275H162.377V0.0822754L88.5522 0.776974Z" fill="white"/>
<path d="M88.7017 60.6033C88.5644 60.6033 88.4546 47.1968 88.4546 30.6856C88.4546 14.1743 88.5644 0.767822 88.7017 0.767822C88.839 0.767822 88.9519 14.1743 88.9519 30.6856C88.9519 47.1968 88.839 60.6033 88.7017 60.6033Z" fill="#7C7A7D" stroke="#7C7A7D" stroke-width="0.5" stroke-miterlimit="10"/>
<path d="M125.805 0.575867C145.137 0.575867 160.809 0.464007 160.809 0.32602C160.809 0.188033 145.137 0.0761719 125.805 0.0761719C106.473 0.0761719 90.8008 0.188033 90.8008 0.32602C90.8008 0.464007 106.473 0.575867 125.805 0.575867Z" fill="#7C7A7D" stroke="#7C7A7D" stroke-width="0.5" stroke-miterlimit="10"/>
<path d="M162.286 61.9531C162.249 61.7614 162.232 61.5664 162.237 61.3712C162.219 60.9903 162.203 60.4297 162.188 59.7106C162.161 58.2664 162.133 56.1762 162.112 53.5954C162.066 48.4157 162.039 41.2981 162.039 33.4187C162.039 25.5394 162.066 18.4035 162.112 13.242C162.133 10.6582 162.161 8.57105 162.188 7.12681C162.188 6.40469 162.219 5.84406 162.237 5.46319C162.232 5.26903 162.249 5.07492 162.286 4.88428C162.325 5.07462 162.343 5.26887 162.338 5.46319C162.338 5.84406 162.368 6.40469 162.383 7.12681C162.414 8.56801 162.438 10.6582 162.463 13.2389C162.508 18.4035 162.536 25.5363 162.536 33.4187C162.536 41.3011 162.508 48.4309 162.463 53.5954C162.438 56.1762 162.414 58.2664 162.383 59.7106C162.368 60.4327 162.353 60.9934 162.338 61.3712C162.342 61.5665 162.325 61.7617 162.286 61.9531Z" fill="#7C7A7D" stroke="#7C7A7D" stroke-width="0.5" stroke-miterlimit="10"/>
<path d="M158.347 62.9007C158.347 63.0378 143.134 63.1475 124.374 63.1475C105.613 63.1475 90.3979 63.0378 90.3979 62.9007C90.3979 62.7636 105.61 62.6509 124.374 62.6509C143.138 62.6509 158.347 62.7667 158.347 62.9007Z" fill="#7C7A7D" stroke="#7C7A7D" stroke-width="0.5" stroke-miterlimit="10"/>
<path d="M123.742 6.95624C142.165 6.95624 157.099 6.84438 157.099 6.70639C157.099 6.5684 142.165 6.45654 123.742 6.45654C105.32 6.45654 90.3857 6.5684 90.3857 6.70639C90.3857 6.84438 105.32 6.95624 123.742 6.95624Z" fill="#7C7A7D" stroke="#7C7A7D" stroke-width="0.5" stroke-miterlimit="10"/>
<path d="M107.871 40.8623C108.009 40.8623 108.121 35.3852 108.121 28.6289C108.121 21.8726 108.009 16.3955 107.871 16.3955C107.733 16.3955 107.621 21.8726 107.621 28.6289C107.621 35.3852 107.733 40.8623 107.871 40.8623Z" fill="#7C7A7D" stroke="#7C7A7D" stroke-width="0.5" stroke-miterlimit="10"/>
<path d="M143.305 41.0816C143.305 41.2187 135.931 41.3284 126.83 41.3284C117.729 41.3284 110.354 41.2187 110.354 41.0816C110.354 40.9445 117.732 40.8318 126.83 40.8318C135.928 40.8318 143.305 40.9445 143.305 41.0816Z" fill="#7C7A7D" stroke="#7C7A7D" stroke-width="0.5" stroke-miterlimit="10"/>
<path d="M149.258 13.05C149.114 13.1826 148.959 13.3019 148.794 13.4065C148.346 13.7189 147.927 14.0696 147.54 14.4547C146.93 15.0622 146.41 15.7537 145.996 16.5083C145.739 16.9761 145.525 17.4667 145.359 17.9739C145.18 18.5483 145.042 19.1348 144.947 19.7289C144.837 20.3566 144.739 21.0238 144.575 21.7155C144.422 22.4433 144.14 23.1379 143.742 23.7661C143.293 24.4596 142.652 25.0071 141.896 25.3413C141.488 25.5186 141.043 25.5949 140.599 25.5638C140.14 25.5209 139.7 25.3557 139.327 25.0854C138.573 24.54 138.125 23.7387 137.624 23.0318C137.385 22.6738 137.107 22.3437 136.795 22.0476C136.49 21.7595 136.116 21.5557 135.708 21.4565C135.279 21.3802 134.838 21.3911 134.412 21.4885C133.986 21.5858 133.585 21.7677 133.231 22.0232C132.849 22.2776 132.506 22.5855 132.212 22.9373C131.917 23.2978 131.669 23.694 131.474 24.1165C130.644 25.8319 130.421 27.7728 129.564 29.4882C129.156 30.339 128.567 31.09 127.837 31.6881C127.471 31.9752 127.058 32.1959 126.616 32.3401C126.396 32.4092 126.169 32.4562 125.939 32.4803C125.824 32.4909 125.709 32.4909 125.594 32.4803C125.482 32.4864 125.368 32.4864 125.256 32.4803C124.395 32.3702 123.577 32.0419 122.879 31.5266C122.199 31.0635 121.604 30.5577 121.009 30.1006C120.458 29.6509 119.855 29.2674 119.215 28.958C119.063 28.8879 118.907 28.8269 118.748 28.7752L118.263 28.6412L117.79 28.565C117.634 28.5376 117.485 28.5467 117.323 28.5345C116.194 28.5468 115.086 28.849 114.107 29.412C113.349 29.8249 112.634 30.3118 111.972 30.8654C110.873 31.7795 110.349 32.3889 110.315 32.3462C110.416 32.1815 110.536 32.0291 110.672 31.8922C111.041 31.4803 111.432 31.0887 111.843 30.7192C112.499 30.1286 113.215 29.6087 113.979 29.1683C114.463 28.8895 114.974 28.6618 115.505 28.4888C116.101 28.289 116.725 28.1861 117.354 28.1841C117.522 28.1832 117.69 28.1913 117.857 28.2085L118.367 28.2816L118.876 28.4218C119.048 28.4748 119.218 28.5379 119.383 28.6107C120.056 28.9229 120.69 29.3147 121.271 29.7777C121.881 30.2316 122.491 30.7313 123.132 31.1671C123.773 31.631 124.52 31.9265 125.305 32.0263C126.122 32.0831 126.931 31.8259 127.565 31.3072C128.239 30.7507 128.782 30.054 129.158 29.2658C129.96 27.6661 130.18 25.7161 131.053 23.8971C131.267 23.4372 131.538 23.0061 131.861 22.6143C132.179 22.2371 132.549 21.9068 132.959 21.6332C133.37 21.3403 133.835 21.1336 134.327 21.0257C134.82 20.9178 135.329 20.911 135.824 21.0056C136.309 21.1256 136.755 21.3692 137.118 21.7125C137.457 22.0335 137.758 22.3923 138.015 22.7819C138.521 23.5193 138.955 24.2719 139.592 24.735C139.903 24.9593 140.269 25.0952 140.651 25.128C141.024 25.1558 141.399 25.0941 141.743 24.9483C142.423 24.6506 143.002 24.164 143.412 23.5467C143.792 22.9531 144.064 22.297 144.215 21.6089C144.382 20.9416 144.489 20.2804 144.614 19.6497C144.722 19.0419 144.875 18.443 145.072 17.8581C145.256 17.3366 145.489 16.8337 145.768 16.356C146.212 15.5921 146.768 14.8989 147.418 14.2993C147.826 13.9217 148.273 13.5887 148.751 13.306C148.908 13.1978 149.078 13.1116 149.258 13.05Z" fill="#7C7A7D" stroke="#7C7A7D" stroke-width="0.5" stroke-miterlimit="10"/>
<path d="M126.796 45.0366C126.836 45.0366 126.833 45.1524 126.873 45.3261C126.936 45.5606 127.065 45.772 127.245 45.9355C127.36 46.0567 127.506 46.1457 127.666 46.1938C127.827 46.2419 127.997 46.2474 128.16 46.2097C128.344 46.1391 128.501 46.0133 128.611 45.8496C128.72 45.6859 128.776 45.4923 128.77 45.2956C128.774 45.199 128.758 45.1027 128.724 45.0122C128.69 44.9218 128.638 44.8389 128.572 44.7685C128.437 44.6394 128.263 44.5589 128.078 44.54C127.915 44.5159 127.749 44.5397 127.599 44.6084C127.45 44.6771 127.323 44.7878 127.236 44.9269C127.11 45.1347 127.055 45.377 127.077 45.6186C127.092 45.7953 127.132 45.8989 127.101 45.9233C127.071 45.9477 126.973 45.8715 126.891 45.6734C126.833 45.5269 126.807 45.3702 126.812 45.2129C126.818 45.0556 126.856 44.9013 126.924 44.7594C127.018 44.5519 127.172 44.3777 127.367 44.2597C127.592 44.1247 127.853 44.062 128.114 44.0799C128.411 44.095 128.694 44.2148 128.911 44.4181C129.026 44.5317 129.117 44.6675 129.178 44.8173C129.24 44.9671 129.27 45.1277 129.268 45.2895C129.27 45.5988 129.176 45.9011 128.999 46.1549C128.829 46.4021 128.576 46.5796 128.285 46.6546C128.026 46.7143 127.754 46.6853 127.513 46.5723C127.314 46.4811 127.139 46.3456 127.001 46.1762C126.798 45.9424 126.689 45.6416 126.696 45.3322C126.699 45.128 126.769 45.0275 126.796 45.0366Z" fill="#7C7A7D" stroke="#7C7A7D" stroke-width="0.5" stroke-miterlimit="10"/>
<path d="M144.553 44.5796C144.553 44.7167 141.557 44.8294 137.862 44.8294C134.168 44.8294 131.168 44.7167 131.168 44.5796C131.168 44.4425 134.165 44.3328 137.862 44.3328C141.56 44.3328 144.553 44.4425 144.553 44.5796Z" fill="#7C7A7D" stroke="#7C7A7D" stroke-width="0.5" stroke-miterlimit="10"/>
<path d="M152.59 46.2279C152.59 46.365 148.349 46.4747 143.116 46.4747C137.884 46.4747 133.658 46.365 133.658 46.2279C133.658 46.0908 137.899 45.978 143.116 45.978C148.334 45.978 152.59 46.0908 152.59 46.2279Z" fill="#7C7A7D" stroke="#7C7A7D" stroke-width="0.5" stroke-miterlimit="10"/>
<path d="M146.61 49.933C146.61 50.0701 141.679 50.1798 135.593 50.1798C129.506 50.1798 124.579 50.0701 124.579 49.933C124.579 49.7958 129.509 49.6831 135.593 49.6831C141.676 49.6831 146.61 49.7958 146.61 49.933Z" fill="#7C7A7D" stroke="#7C7A7D" stroke-width="0.5" stroke-miterlimit="10"/>
<path d="M142.903 54.4607C142.903 54.5978 139.354 54.7105 134.97 54.7105C130.586 54.7105 127.038 54.5978 127.038 54.4607C127.038 54.3236 130.586 54.2139 134.97 54.2139C139.354 54.2139 142.903 54.3236 142.903 54.4607Z" fill="#7C7A7D" stroke="#7C7A7D" stroke-width="0.5" stroke-miterlimit="10"/>
<path d="M27.0897 21.8586L26.812 117.861L112.023 117.556L111.975 21.883L27.0897 21.8586Z" fill="white"/>
<path d="M27.0803 115.832C27.0598 115.753 27.0515 115.672 27.0559 115.591L27.0314 114.869C27.0314 114.244 27.004 113.324 26.9826 112.127C26.9643 109.756 26.9369 106.338 26.9033 102.087C26.8606 93.6076 26.8301 81.8921 26.8301 68.9519C26.8301 56.0116 26.8606 44.2992 26.9033 35.8196C26.9369 31.5783 26.9643 28.1475 26.9826 25.7648C27.004 24.5795 27.0192 23.6593 27.0314 23.0225L27.0559 22.3126C27.0514 22.2306 27.0597 22.1484 27.0803 22.0688C27.1009 22.1484 27.1091 22.2306 27.1047 22.3126L27.1291 23.0225L27.1779 25.7648C27.1962 28.1353 27.2237 31.5539 27.2572 35.8196C27.2999 44.2992 27.3274 56.0146 27.3274 68.9549C27.3274 81.8952 27.2999 93.6106 27.2572 102.09C27.2237 106.328 27.1962 109.759 27.1779 112.145L27.1291 114.887L27.1047 115.597C27.1083 115.676 27.1001 115.755 27.0803 115.832Z" fill="#7C7A7D" stroke="#7C7A7D" stroke-width="0.5" stroke-miterlimit="10"/>
<path d="M69.3246 22.0871C92.2544 22.0871 110.843 21.9752 110.843 21.8373C110.843 21.6993 92.2544 21.5874 69.3246 21.5874C46.3949 21.5874 27.8066 21.6993 27.8066 21.8373C27.8066 21.9752 46.3949 22.0871 69.3246 22.0871Z" fill="#7C7A7D" stroke="#7C7A7D" stroke-width="0.5" stroke-miterlimit="10"/>
<path d="M112.023 117.504C111.886 117.504 111.776 96.3557 111.776 70.2771C111.776 44.1985 111.886 23.0498 112.023 23.0498C112.161 23.0498 112.277 44.1802 112.277 70.2649C112.277 96.3496 112.161 117.504 112.023 117.504Z" fill="#7C7A7D" stroke="#7C7A7D" stroke-width="0.5" stroke-miterlimit="10"/>
<path d="M111.297 117.556C111.297 117.693 92.6585 117.803 69.6662 117.803C46.6738 117.803 28.0322 117.693 28.0322 117.556C28.0322 117.419 46.6799 117.306 69.6662 117.306C92.6524 117.306 111.297 117.419 111.297 117.556Z" fill="#7C7A7D" stroke="#7C7A7D" stroke-width="0.5" stroke-miterlimit="10"/>
<path d="M95.1908 27.5106C95.1908 27.6477 80.5643 27.7574 62.5207 27.7574C44.4771 27.7574 29.8506 27.6477 29.8506 27.5106C29.8506 27.3735 44.4771 27.2607 62.5207 27.2607C80.5643 27.2607 95.1908 27.3704 95.1908 27.5106Z" fill="#7C7A7D" stroke="#7C7A7D" stroke-width="0.5" stroke-miterlimit="10"/>
<path d="M31.1201 58.2176C31.1567 58.1932 31.2757 58.3639 31.5564 58.5832C31.9513 58.8842 32.4299 59.0555 32.9263 59.0738C33.258 59.0896 33.5889 59.0291 33.8935 58.8971C34.2327 58.7437 34.5161 58.4893 34.705 58.1689C34.952 57.8117 35.0759 57.384 35.058 56.9503C35.04 56.5166 34.8812 56.1006 34.6055 55.765C34.3298 55.4295 33.9522 55.1926 33.5298 55.0904C33.1074 54.9881 32.6632 55.0259 32.2642 55.1981C31.9116 55.3193 31.6055 55.5472 31.3886 55.8501C31.198 56.1222 31.0746 56.4354 31.0286 56.7642C30.9495 57.2538 31.0263 57.7557 31.2482 58.1993C31.4069 58.504 31.5533 58.6655 31.5259 58.696C31.4984 58.7264 31.3123 58.6137 31.0804 58.2999C30.7649 57.8384 30.6223 57.2807 30.6777 56.7246C30.7091 56.3324 30.8358 55.9538 31.0469 55.6216C31.3005 55.2345 31.6699 54.937 32.1025 54.7715C32.3318 54.6808 32.5736 54.6254 32.8195 54.607C33.0756 54.5829 33.3339 54.5983 33.5853 54.6527C34.1319 54.7465 34.6262 55.0343 34.9771 55.4631C35.3281 55.892 35.5121 56.433 35.4952 56.9866C35.4977 57.2437 35.4607 57.4995 35.3854 57.7453C35.319 57.9832 35.2161 58.2093 35.0803 58.4157C34.8323 58.8053 34.4685 59.1079 34.0399 59.281C33.6729 59.4218 33.2772 59.472 32.8866 59.4272C32.3289 59.3737 31.8075 59.1269 31.413 58.7295C31.1476 58.44 31.0865 58.2267 31.1201 58.2176Z" fill="#7C7A7D" stroke="#7C7A7D" stroke-width="0.5" stroke-miterlimit="10"/>
<path d="M56.3701 54.7288C56.3701 54.866 52.4038 54.9756 47.5222 54.9756C42.6406 54.9756 38.6743 54.866 38.6743 54.7288C38.6743 54.5917 42.6406 54.479 47.5222 54.479C52.4038 54.479 56.3701 54.5917 56.3701 54.7288Z" fill="#7C7A7D" stroke="#7C7A7D" stroke-width="0.5" stroke-miterlimit="10"/>
<path d="M66.1304 58.1291C66.1304 58.2662 59.9857 58.379 52.4009 58.379C44.8161 58.379 38.6714 58.2662 38.6714 58.1291C38.6714 57.992 44.8192 57.8823 52.4009 57.8823C59.9826 57.8823 66.1304 57.992 66.1304 58.1291Z" fill="#7C7A7D" stroke="#7C7A7D" stroke-width="0.5" stroke-miterlimit="10"/>
<path d="M47.9707 61.3039C47.9707 61.441 45.5299 61.5538 42.5247 61.5538C39.5194 61.5538 37.0786 61.441 37.0786 61.3039C37.0786 61.1668 39.5194 61.0571 42.5247 61.0571C45.5299 61.0571 47.9707 61.1668 47.9707 61.3039Z" fill="#7C7A7D" stroke="#7C7A7D" stroke-width="0.5" stroke-miterlimit="10"/>
<path d="M70.899 63.7995C70.899 63.9367 64.1441 64.0494 55.8118 64.0494C47.4795 64.0494 40.7246 63.9367 40.7246 63.7995C40.7246 63.6624 47.4795 63.5527 55.8118 63.5527C64.1441 63.5527 70.899 63.6624 70.899 63.7995Z" fill="#7C7A7D" stroke="#7C7A7D" stroke-width="0.5" stroke-miterlimit="10"/>
<path d="M49.5665 68.1323C56.7093 68.1323 62.4997 68.0204 62.4997 67.8824C62.4997 67.7444 56.7093 67.6326 49.5665 67.6326C42.4237 67.6326 36.6333 67.7444 36.6333 67.8824C36.6333 68.0204 42.4237 68.1323 49.5665 68.1323Z" fill="#7C7A7D" stroke="#7C7A7D" stroke-width="0.5" stroke-miterlimit="10"/>
<path d="M30.9401 84.6648C31.0783 84.6648 31.1903 83.8026 31.1903 82.7391C31.1903 81.6756 31.0783 80.8135 30.9401 80.8135C30.802 80.8135 30.6899 81.6756 30.6899 82.7391C30.6899 83.8026 30.802 84.6648 30.9401 84.6648Z" fill="#7C7A7D" stroke="#7C7A7D" stroke-width="0.5" stroke-miterlimit="10"/>
<path d="M61.8133 85.3474C61.8133 85.4845 55.0095 85.5972 46.6132 85.5972C38.2168 85.5972 31.4131 85.4845 31.4131 85.3474C31.4131 85.2103 38.2168 85.1006 46.6132 85.1006C55.0095 85.1006 61.8133 85.2103 61.8133 85.3474Z" fill="#7C7A7D" stroke="#7C7A7D" stroke-width="0.5" stroke-miterlimit="10"/>
<path d="M46.9549 81.2888C55.0362 81.2888 61.5875 81.1769 61.5875 81.0389C61.5875 80.9009 55.0362 80.7891 46.9549 80.7891C38.8735 80.7891 32.3223 80.9009 32.3223 81.0389C32.3223 81.1769 38.8735 81.2888 46.9549 81.2888Z" fill="#7C7A7D" stroke="#7C7A7D" stroke-width="0.5" stroke-miterlimit="10"/>
<path d="M62.0605 83.7567C61.9293 83.7932 61.6425 83.1473 61.5814 82.3124C61.5204 81.4776 61.7035 80.789 61.8347 80.8134C61.9659 80.8377 62.0147 81.4837 62.0788 82.2759C62.1428 83.0681 62.1947 83.7232 62.0605 83.7567Z" fill="#7C7A7D" stroke="#7C7A7D" stroke-width="0.5" stroke-miterlimit="10"/>
<path d="M40.6848 77.867C40.5567 77.9067 40.2577 77.2577 40.2058 76.4167C40.1539 75.5758 40.3645 74.8933 40.4957 74.9176C40.6268 74.942 40.6482 75.594 40.7031 76.3862C40.758 77.1784 40.8221 77.8274 40.6848 77.867Z" fill="#7C7A7D" stroke="#7C7A7D" stroke-width="0.5" stroke-miterlimit="10"/>
<path d="M52.4038 78.3393C58.731 78.3393 63.8603 78.2274 63.8603 78.0895C63.8603 77.9515 58.731 77.8396 52.4038 77.8396C46.0765 77.8396 40.9473 77.9515 40.9473 78.0895C40.9473 78.2274 46.0765 78.3393 52.4038 78.3393Z" fill="#7C7A7D" stroke="#7C7A7D" stroke-width="0.5" stroke-miterlimit="10"/>
<path d="M51.3815 74.936C57.0196 74.936 61.5901 74.8241 61.5901 74.6861C61.5901 74.5481 57.0196 74.4363 51.3815 74.4363C45.7434 74.4363 41.1729 74.5481 41.1729 74.6861C41.1729 74.8241 45.7434 74.936 51.3815 74.936Z" fill="#7C7A7D" stroke="#7C7A7D" stroke-width="0.5" stroke-miterlimit="10"/>
<path d="M63.6221 76.9622C63.497 77.0049 63.2041 76.4717 63.1492 75.7435C63.0943 75.0153 63.3017 74.4424 63.4329 74.4668C63.5641 74.4912 63.5916 75.0427 63.6465 75.7069C63.7014 76.3711 63.7655 76.9165 63.6221 76.9622Z" fill="#7C7A7D" stroke="#7C7A7D" stroke-width="0.5" stroke-miterlimit="10"/>
<path d="M78.2887 88.3059C77.8585 89.153 77.2116 90.4631 76.4947 92.0963C73.5443 98.7995 72.2507 104.479 71.2927 108.775C70.832 110.829 70.2554 113.668 69.7397 117.105L111.676 116.831C111.484 113.306 111.304 110.311 111.163 108.023C110.794 102.048 110.651 100.43 110.413 98.5771C110.01 95.4448 109.497 92.9037 109.128 91.2188L78.2887 88.3059Z" fill="white"/>
<path d="M69.6633 116.697C69.6534 116.325 69.6872 115.952 69.764 115.588C69.8586 114.878 70.0264 113.857 70.2644 112.602C70.7312 110.088 71.5061 106.636 72.5892 102.882C73.6723 99.1285 74.8622 95.7982 75.805 93.4216C76.2779 92.2303 76.6776 91.2888 76.9766 90.6276C77.1055 90.2777 77.2755 89.9443 77.483 89.6343C77.4138 89.9997 77.3043 90.3563 77.1566 90.6977L76.1345 93.5404C75.2771 95.9414 74.1483 99.2808 73.0835 103.016C72.0187 106.752 71.1797 110.18 70.6213 112.669C70.3467 113.915 70.124 114.921 69.9684 115.618C69.9083 115.988 69.8059 116.35 69.6633 116.697Z" fill="#7C7A7D" stroke="#7C7A7D" stroke-width="0.5" stroke-miterlimit="10"/>
<path d="M90.1506 105.887C90.0652 105.993 89.2353 105.472 88.2834 104.723C87.3315 103.973 86.6419 103.278 86.7274 103.172C86.8128 103.065 87.6427 103.586 88.5915 104.336C89.5404 105.085 90.236 105.777 90.1506 105.887Z" fill="#7C7A7D" stroke="#7C7A7D" stroke-width="0.5" stroke-miterlimit="10"/>
<path d="M90.4465 115.88C90.3153 115.899 89.9217 113.708 89.757 110.969C89.5922 108.23 89.7112 106.008 89.8455 106.011C89.9797 106.015 90.0865 108.221 90.2543 110.938C90.4221 113.656 90.5869 115.862 90.4465 115.88Z" fill="#7C7A7D" stroke="#7C7A7D" stroke-width="0.5" stroke-miterlimit="10"/>
<path d="M111.361 114.835C111.291 114.835 111.224 113.653 111.126 111.743C111.029 109.832 110.892 107.194 110.684 104.284C110.477 101.374 110.236 98.7415 110.059 96.8372C109.882 94.9329 109.781 93.7506 109.851 93.7415C109.921 93.7324 110.141 94.8963 110.406 96.7884C110.672 98.6806 110.971 101.319 111.178 104.238C111.386 107.157 111.483 109.805 111.483 111.721C111.483 113.638 111.432 114.835 111.361 114.835Z" fill="#7C7A7D" stroke="#7C7A7D" stroke-width="0.5" stroke-miterlimit="10"/>
<path d="M90.0684 36.5632C89.0205 36.556 87.9775 36.707 86.9747 37.0111C85.3028 37.526 84.2502 38.37 83.3837 38.9459C83.3837 38.9459 82.5447 39.5553 76.9766 43.2116C75.0079 44.4968 72.9608 45.6579 70.8471 46.6881C67.8866 40.9748 65.9261 34.798 65.0502 28.4248L63.4881 27.8398C63.5448 26.3048 63.3289 24.7719 62.8504 23.3121C62.7162 22.916 62.7498 22.0172 62.1396 21.618C61.9618 21.5043 61.7582 21.4372 61.5477 21.423C60.3913 14.4151 59.6621 12.9647 59.2075 12.9861C58.8658 13.0044 58.5607 13.8544 58.4814 14.0769C58.1458 15.0092 58.3258 15.8045 58.4631 16.6271C58.6503 17.7654 58.7645 18.9144 58.8048 20.0671C57.859 18.2847 56.9742 16.8709 56.2908 15.841C55.5494 14.732 55.1741 14.2719 54.9026 14.3541C54.4815 14.4791 54.4693 15.8776 54.6799 16.9196C54.8367 17.5382 55.0554 18.1395 55.3328 18.7143C55.6989 19.5674 56.0315 20.2591 56.2694 20.7405C56.0732 21.2129 55.7579 21.6264 55.3541 21.941C54.8172 22.3462 54.4968 22.2457 54.1032 22.6631C53.9059 22.8803 53.7556 23.1358 53.6616 23.4137C53.5676 23.6915 53.5321 23.9858 53.5571 24.278C53.5754 24.4882 53.8256 24.994 54.3198 25.9995C54.5162 26.3384 54.6768 26.6968 54.7989 27.069C54.9697 27.6783 54.8324 27.8368 55.0307 28.2329C55.1894 28.5376 55.4335 28.7539 55.9247 29.147C56.4159 29.54 56.5349 29.54 56.7027 29.7838C56.917 30.0998 57.0191 30.4785 56.9925 30.8593L56.2145 32.7058C56.4708 33.6686 56.8247 35.0488 57.2976 36.7094C58.3289 40.448 58.8445 42.3188 59.3082 43.7813C61.1663 49.6375 62.1701 50.7557 63.241 54.0098C63.4737 54.7536 63.8073 55.462 64.2325 56.1153C64.6351 56.7951 65.1594 57.3952 65.7794 57.8855C66.8076 58.6412 67.8724 58.7143 69.6328 58.7996C71.0095 58.8561 72.3885 58.7837 73.7517 58.5833C75.1701 58.4462 76.5725 58.1769 77.9407 57.7789C80.0711 56.9796 82.0179 55.7587 83.6644 54.1896C86.932 51.1427 89.6748 44.6985 90.0684 36.5632Z" fill="white"/>
<path d="M70.8621 46.6729C70.8286 46.6119 71.8659 46.0147 73.5226 45.0306C75.1793 44.0464 77.4584 42.6692 79.9053 41.0421C81.1257 40.2317 82.2698 39.4273 83.3316 38.7052C84.2676 38.0446 85.2758 37.4926 86.3368 37.0598C87.0593 36.7663 87.83 36.6093 88.6098 36.5967H88.9759C89.0796 36.5967 89.1681 36.6241 89.2414 36.6363C89.3817 36.6607 89.4549 36.682 89.4549 36.6972C89.4549 36.7125 89.3756 36.7277 89.2353 36.7368H88.9759L88.622 36.7704C87.8776 36.8605 87.1519 37.0661 86.471 37.3797C85.4563 37.8485 84.4914 38.4181 83.5909 39.0799C82.5566 39.8142 81.4125 40.6399 80.1799 41.4504C77.7208 43.0897 75.402 44.4242 73.6965 45.3353C71.991 46.2463 70.8926 46.7307 70.8621 46.6729Z" fill="#7C7A7D" stroke="#7C7A7D" stroke-width="0.5" stroke-miterlimit="10"/>
<path d="M65.0194 28.821C65.0927 28.821 65.3093 29.8143 65.6907 31.4231C66.072 33.0319 66.6365 35.25 67.3931 37.6571C68.1498 40.0642 68.9552 42.2031 69.5654 43.751C70.1756 45.2988 70.5723 46.2372 70.5052 46.2708C70.438 46.3043 69.9377 45.3993 69.2573 43.8759C67.4644 39.9199 66.1562 35.7623 65.3612 31.4932C65.05 29.86 64.9554 28.8302 65.0194 28.821Z" fill="#7C7A7D" stroke="#7C7A7D" stroke-width="0.5" stroke-miterlimit="10"/>
<path d="M56.321 31.8314C56.2936 31.8314 56.2966 31.6699 56.4095 31.4262C56.5768 31.0895 56.8079 30.7884 57.0899 30.5395C57.9743 29.7121 58.9781 29.0219 60.0677 28.492C60.6791 28.198 61.3294 27.9928 61.9989 27.8826C62.5462 27.8022 63.1023 27.8022 63.6495 27.8826C64.5892 28.0258 65.0866 28.367 65.0591 28.4158C65.0316 28.4645 64.5008 28.2787 63.616 28.233C63.1047 28.2121 62.5927 28.251 62.0905 28.3488C61.4688 28.4777 60.8652 28.6824 60.2934 28.9581C59.2459 29.4763 58.2543 30.1001 57.334 30.8198C56.5987 31.3348 56.3882 31.8527 56.321 31.8314Z" fill="#7C7A7D" stroke="#7C7A7D" stroke-width="0.5" stroke-miterlimit="10"/>
<path d="M86.8741 53.239C86.7561 53.351 86.6225 53.4454 86.4774 53.5193C86.212 53.6899 85.8123 53.9306 85.2936 54.2323C84.2563 54.8416 82.743 55.6917 80.7873 56.5936C78.4976 57.6789 76.0682 58.4418 73.5687 58.8605C72.0835 59.0942 70.5754 59.1464 69.0776 59.0159C68.2765 58.9556 67.484 58.8116 66.7131 58.5863C66.3097 58.4588 65.9243 58.2806 65.5659 58.0561C65.2026 57.8175 64.8819 57.5199 64.617 57.1756C64.1326 56.5047 63.7301 55.7784 63.418 55.0123C63.0864 54.2871 62.7681 53.569 62.463 52.8581C61.8528 51.4382 61.3006 50.0549 60.8002 48.7265C59.8025 46.0695 59.0245 43.632 58.4326 41.5723C57.8407 39.5126 57.435 37.8185 57.1817 36.6485C57.0505 36.0634 56.9651 35.6064 56.9071 35.2956C56.8646 35.1388 56.8451 34.9766 56.8492 34.8142C57.0597 35.3989 57.2329 35.9962 57.3678 36.6028C57.6729 37.7575 58.1367 39.4303 58.7682 41.4778C59.3998 43.5254 60.2114 45.9355 61.2304 48.5711C61.7399 49.8873 62.2983 51.2615 62.9085 52.6722C63.2136 53.3761 63.5339 54.0921 63.8695 54.8051C64.1658 55.5342 64.5478 56.2257 65.0075 56.8648C65.2384 57.1669 65.519 57.4275 65.8374 57.6357C66.1583 57.8383 66.5038 57.999 66.8656 58.114C67.602 58.3291 68.3585 58.468 69.1233 58.5284C70.5825 58.6623 72.0524 58.6204 73.5015 58.4035C75.9665 58.0118 78.3683 57.2945 80.6439 56.2706C82.6027 55.4175 84.1343 54.607 85.2021 54.0586L86.4225 53.4309C86.564 53.3475 86.7158 53.283 86.8741 53.239Z" fill="#7C7A7D" stroke="#7C7A7D" stroke-width="0.5" stroke-miterlimit="10"/>
<path d="M60.684 23.7904C60.684 23.8178 60.4918 23.897 60.1104 23.9244C59.565 23.9554 59.0198 23.8595 58.5178 23.6441C58.3503 23.5705 58.1873 23.4871 58.0296 23.3943C57.9503 23.3394 57.871 23.2937 57.7856 23.2267C57.6775 23.1489 57.5921 23.0437 57.5384 22.922C57.5105 22.8456 57.5006 22.7637 57.5096 22.6828C57.5186 22.602 57.5462 22.5243 57.5903 22.4558C57.6634 22.3438 57.7603 22.2491 57.874 22.1786C58.0664 22.0658 58.265 21.9641 58.469 21.8739C58.8956 21.6739 59.3386 21.5108 59.7931 21.3864C60.0311 21.3214 60.2752 21.2665 60.5254 21.2218C60.789 21.1745 61.057 21.1551 61.3247 21.1639C61.6097 21.1724 61.89 21.2387 62.1485 21.3589C62.4123 21.4911 62.6263 21.7048 62.7587 21.9683C62.8677 22.2035 62.9388 22.4544 62.9692 22.7118L63.0638 23.379C63.1797 24.2474 63.2774 25.0335 63.3506 25.6917C63.5031 27.011 63.5611 27.8245 63.494 27.8245C63.4269 27.8245 63.2438 27.0323 63.0028 25.7313C62.8838 25.0792 62.7495 24.3023 62.6092 23.44C62.5689 23.0091 62.4735 22.5852 62.3254 22.1786C62.2166 22.0065 62.0634 21.8669 61.882 21.7741C61.7006 21.6814 61.4976 21.639 61.2942 21.6514C60.8256 21.6515 60.3594 21.7171 59.9091 21.8464C59.4782 21.9585 59.0569 22.1042 58.649 22.2822C58.4624 22.3608 58.2801 22.4493 58.1029 22.5472C58.0398 22.581 57.9847 22.6277 57.9412 22.6843C57.9299 22.6982 57.9221 22.7146 57.9183 22.732C57.9146 22.7495 57.9151 22.7676 57.9198 22.7849C57.9198 22.855 58.0937 22.9799 58.2249 23.0896C58.3607 23.1828 58.5024 23.2673 58.649 23.3425C59.1055 23.562 59.5991 23.6943 60.1043 23.7325C60.4735 23.766 60.6779 23.766 60.684 23.7904Z" fill="#7C7A7D" stroke="#7C7A7D" stroke-width="0.5" stroke-miterlimit="10"/>
<path d="M60.2477 27.002C60.2172 27.0568 59.9883 27.002 59.7107 26.7643C59.5505 26.6208 59.4163 26.4507 59.3141 26.2616C59.0652 25.795 58.9844 25.2571 59.0852 24.7381C59.1276 24.523 59.2071 24.3168 59.3202 24.1287C59.5124 23.824 59.7198 23.7022 59.7626 23.7448C59.8053 23.7875 59.7259 23.9794 59.6405 24.275C59.5298 24.6526 59.5017 25.0495 59.5581 25.4389C59.6182 25.8281 59.7607 26.2 59.9761 26.5297C60.1409 26.7887 60.2873 26.938 60.2477 27.002Z" fill="#7C7A7D" stroke="#7C7A7D" stroke-width="0.5" stroke-miterlimit="10"/>
<path d="M59.2897 20.8014C59.2317 20.8014 58.9235 19.9696 58.5788 18.5467C58.3719 17.7097 58.2372 16.8564 58.176 15.9964C58.1373 15.4893 58.1373 14.9801 58.176 14.473C58.176 14.3389 58.2035 14.2048 58.2188 14.0677C58.2319 13.9202 58.2595 13.7742 58.3011 13.632C58.3495 13.4567 58.4444 13.2978 58.5757 13.1719C58.6616 13.0935 58.7681 13.0413 58.8827 13.0213C58.9973 13.0013 59.1152 13.0145 59.2225 13.0592C59.3993 13.1453 59.5421 13.288 59.6283 13.4644C59.6984 13.6018 59.7517 13.7471 59.787 13.8971L59.9792 14.6741C60.1043 15.1829 60.2233 15.6735 60.3362 16.1396C60.5619 17.075 60.7572 17.9221 60.9128 18.632C61.2179 20.0519 61.3888 20.9385 61.3216 20.9538C61.2545 20.969 60.9708 20.1128 60.5711 18.7143C60.3728 18.0165 60.1409 17.1908 59.8938 16.2554L59.5093 14.799C59.4453 14.5461 59.3781 14.2902 59.311 14.0281C59.2844 13.9137 59.2434 13.8032 59.189 13.6991C59.157 13.6235 59.1013 13.5604 59.0303 13.5193C59.0094 13.5107 58.9864 13.5084 58.9641 13.5128C58.9419 13.5171 58.9214 13.5278 58.9052 13.5437C58.8414 13.61 58.7961 13.692 58.774 13.7813C58.7386 13.8952 58.7161 14.0128 58.7069 14.1317C58.7069 14.2597 58.6703 14.3877 58.6612 14.5156C58.6143 15.0047 58.6021 15.4965 58.6245 15.9873C58.6645 16.8276 58.7604 17.6643 58.9113 18.4919C59.189 19.8995 59.3629 20.7831 59.2897 20.8014Z" fill="#7C7A7D" stroke="#7C7A7D" stroke-width="0.5" stroke-miterlimit="10"/>
<path d="M57.1085 22.2425C57.0567 22.276 56.5624 21.6331 55.937 20.4875C55.5733 19.814 55.2463 19.1213 54.9576 18.4125C54.7959 18.0103 54.6525 17.5838 54.4877 17.1389C54.4115 16.9165 54.3382 16.688 54.2711 16.4534C54.1863 16.2046 54.13 15.947 54.1033 15.6855C54.0925 15.5396 54.1027 15.3928 54.1338 15.2498C54.1688 15.0981 54.2342 14.9551 54.326 14.8293C54.4196 14.7025 54.5405 14.5984 54.6799 14.5246C54.8313 14.4475 55.0028 14.4187 55.1712 14.4424C55.454 14.5056 55.7044 14.6691 55.8759 14.9025C56.0315 15.0944 56.1505 15.265 56.2787 15.4448C56.7214 16.0726 57.12 16.7303 57.4716 17.4131C58.0635 18.5831 58.2862 19.3632 58.2283 19.3875C58.1703 19.4119 57.8225 18.6867 57.1635 17.5838C56.8309 17.0323 56.416 16.3924 55.9095 15.7129C55.6563 15.4083 55.3786 14.9543 55.101 14.9238C55.026 14.92 54.9514 14.9367 54.8853 14.9721C54.8192 15.0076 54.764 15.0604 54.7257 15.1249C54.6743 15.1949 54.638 15.2748 54.6189 15.3595C54.5964 15.4594 54.5902 15.5623 54.6006 15.6642C54.6254 15.889 54.6734 16.1105 54.744 16.3254C54.8111 16.5539 54.8813 16.7794 54.9515 16.9987C55.0918 17.4375 55.2383 17.858 55.3847 18.2571C55.6898 19.0524 55.9949 19.7562 56.2512 20.3412C56.7882 21.5051 57.1726 22.209 57.1085 22.2425Z" fill="#7C7A7D" stroke="#7C7A7D" stroke-width="0.5" stroke-miterlimit="10"/>
<path d="M57.5448 24.3907C57.435 24.4699 57.0322 24.086 56.7424 23.4766C56.4526 22.8672 56.4068 22.3005 56.5349 22.2578C56.6631 22.2152 56.9194 22.6844 57.1939 23.2572C57.4685 23.83 57.6638 24.3145 57.5448 24.3907Z" fill="#7C7A7D" stroke="#7C7A7D" stroke-width="0.5" stroke-miterlimit="10"/>
<path d="M56.6661 25.8196C56.6448 25.8745 56.2908 25.8196 55.8362 25.4845C55.2437 25.0352 54.8236 24.3962 54.6464 23.6746C54.5422 23.2765 54.5266 22.8606 54.6006 22.4558C54.673 22.1117 54.8412 21.7949 55.0857 21.5418C55.1675 21.4502 55.2669 21.3761 55.3781 21.3237C55.4892 21.2714 55.6097 21.2419 55.7325 21.2371C55.9034 21.2371 55.9827 21.3041 55.9766 21.3315C55.9766 21.4077 55.6196 21.3742 55.3481 21.7581C55.1903 21.9847 55.086 22.2441 55.043 22.5168C55.0067 22.8608 55.0325 23.2086 55.1193 23.5436C55.2812 24.1701 55.604 24.7435 56.0559 25.2072C56.4129 25.5942 56.6966 25.7496 56.6661 25.8196Z" fill="#7C7A7D" stroke="#7C7A7D" stroke-width="0.5" stroke-miterlimit="10"/>
<path d="M55.2229 27.002C55.1741 27.0477 54.9178 26.8832 54.5486 26.5511C54.0434 26.1134 53.6562 25.5561 53.4228 24.9301C53.307 24.5999 53.2682 24.2476 53.3095 23.9002C53.3507 23.5527 53.4709 23.2193 53.6608 22.9252C53.7774 22.7479 53.9383 22.604 54.1276 22.5078C54.2588 22.4438 54.3442 22.4377 54.3595 22.4652C54.3747 22.4926 54.1459 22.7028 53.9628 23.105C53.7348 23.6331 53.7109 24.227 53.8957 24.7717C54.1166 25.3319 54.4256 25.8534 54.811 26.3165C55.107 26.6973 55.2809 26.9502 55.2229 27.002Z" fill="#7C7A7D" stroke="#7C7A7D" stroke-width="0.5" stroke-miterlimit="10"/>
<path d="M56.7821 30.4054C56.7181 30.3779 56.7821 30.122 56.5259 29.8417C56.4597 29.7654 56.3849 29.6969 56.3031 29.6375C56.2067 29.5674 56.1046 29.5052 55.998 29.4517C55.6923 29.3198 55.4092 29.1409 55.159 28.9215C54.9176 28.655 54.767 28.319 54.7288 27.9617C54.683 27.657 54.6769 27.4102 54.6556 27.2031C54.6251 26.7948 54.5213 26.5632 54.5824 26.5205C54.6434 26.4779 54.8692 26.6881 55.0004 27.1299C55.1315 27.5717 55.156 28.1994 55.516 28.5711C55.734 28.7578 55.9725 28.9193 56.2269 29.0525C56.3548 29.1306 56.4744 29.2214 56.5838 29.3237C56.6784 29.4139 56.7605 29.5164 56.8279 29.6284C56.9347 29.8024 56.9708 30.0107 56.9286 30.2104C56.8798 30.3688 56.8126 30.4176 56.7821 30.4054Z" fill="#7C7A7D" stroke="#7C7A7D" stroke-width="0.5" stroke-miterlimit="10"/>
<path d="M90.0684 36.563C87.2677 38.3425 85.1683 41.0332 84.125 44.1803C84.4301 44.3235 85.0922 44.7013 85.2722 45.3991C85.4522 46.0968 85.0037 46.7824 84.723 47.1846C83.7465 48.568 82.6954 49.8974 81.5744 51.1669C80.0824 52.8854 79.6706 54.7805 79.2861 56.1425C78.8657 57.4986 78.6488 58.9094 78.6424 60.329C78.6424 62.605 79.2526 64.3723 79.9635 66.4472C80.3448 67.5624 80.7201 68.4612 80.9855 69.0615C80.0702 72.1785 78.9292 75.5209 77.5257 79.0188C76.5097 81.5569 75.4541 83.9305 74.3862 86.1364C74.7777 86.6749 75.1983 87.1917 75.6463 87.6843C76.8163 88.9235 78.1257 90.0236 79.5485 90.9628C84.5766 94.226 91.957 95.2132 93.0309 95.3473C95.1098 95.6223 97.208 95.7242 99.3038 95.652C101.4 95.5728 104.137 95.4448 107.435 94.3327C109.003 93.8043 110.513 93.1161 111.941 92.279C112.304 90.1631 112.528 88.0257 112.612 85.8805C112.679 84.1803 112.597 83.9975 112.56 80.3656C112.49 73.9061 112.725 72.3186 112.978 71.1029C113.245 69.8653 113.584 68.6444 113.994 67.4466C114.418 66.2126 114.638 65.8195 115.563 63.6654C116.826 60.719 117.482 59.1803 118.101 57.1998C118.466 56.0637 118.772 54.9094 119.016 53.7415C119.395 51.7854 119.73 48.3972 118.562 43.8451C117.146 43.5404 115.093 43.0834 112.624 42.4984C107.462 41.2796 103.508 40.2254 98.4342 38.8634C96.2924 38.2754 93.4428 37.5045 90.0684 36.563Z" fill="white"/>
<path d="M120.929 44.3386C120.511 44.3263 120.095 44.2711 119.687 44.1741C118.894 44.037 117.75 43.8145 116.331 43.522C113.512 42.9431 109.619 42.0687 105.366 40.9961C101.113 39.9236 97.2687 38.8481 94.5106 38.0223C93.1285 37.611 92.0179 37.2637 91.2521 37.0108C90.8474 36.9029 90.4548 36.7539 90.0806 36.5659C90.4949 36.6117 90.9038 36.6984 91.301 36.8249L94.5991 37.6872C97.3816 38.4245 101.223 39.4422 105.479 40.5147C109.735 41.5872 113.604 42.5135 116.402 43.1808L119.715 43.9852C120.131 44.0594 120.538 44.1779 120.929 44.3386Z" fill="#7C7A7D" stroke="#7C7A7D" stroke-width="0.5" stroke-miterlimit="10"/>
<path d="M81.7481 70.1523C81.5132 69.8472 81.3146 69.5159 81.1562 69.1651C80.8175 68.5161 80.3294 67.5716 79.8198 66.3559C79.1998 64.9323 78.7651 63.4352 78.5262 61.9013C78.3932 60.9873 78.3635 60.0613 78.4377 59.1407C78.522 58.156 78.7049 57.1822 78.9839 56.234C79.5224 54.4048 80.3174 52.6609 81.3453 51.0542C81.7914 50.356 82.2794 49.6855 82.8068 49.0463C83.298 48.4369 83.8136 47.922 84.2468 47.4527C84.6507 47.0545 84.9494 46.5624 85.1164 46.0207C85.2142 45.6084 85.1567 45.1745 84.9547 44.8019C84.8329 44.5657 84.6397 44.3738 84.4025 44.2535C84.2316 44.1803 84.1279 44.1682 84.1309 44.1468C84.134 44.1255 84.2377 44.1103 84.436 44.1468C84.7225 44.2414 84.9658 44.4347 85.1225 44.6922C85.3801 45.0976 85.4749 45.5851 85.3879 46.0573C85.2376 46.6564 84.9361 47.2071 84.5123 47.6569C84.076 48.1627 83.597 48.6776 83.1271 49.2809C82.6247 49.9181 82.1592 50.5834 81.7328 51.2736C80.7548 52.8633 79.9944 54.5767 79.472 56.368C79.2008 57.2857 79.0199 58.2276 78.932 59.1803C78.8543 60.0654 78.8737 60.9564 78.99 61.8373C79.2029 63.3398 79.5942 64.8116 80.1555 66.2218C80.6162 67.4406 81.0555 68.4034 81.3392 69.0768C81.516 69.4186 81.6531 69.7795 81.7481 70.1523Z" fill="#7C7A7D" stroke="#7C7A7D" stroke-width="0.5" stroke-miterlimit="10"/>
<path d="M74.1389 86.2278C74.0779 86.1973 74.4776 85.2406 75.161 83.708C75.8444 82.1754 76.8116 80.076 77.8032 77.7268C78.7947 75.3777 79.588 73.2052 80.1067 71.633C80.6253 70.0608 80.9121 69.0462 80.9854 69.0645C81.0586 69.0827 80.8847 70.1095 80.4453 71.7336C79.8529 73.8452 79.1242 75.9164 78.2639 77.934C77.2662 80.2984 76.2441 82.3825 75.4783 83.8755C74.7125 85.3685 74.1969 86.2674 74.1389 86.2278Z" fill="#7C7A7D" stroke="#7C7A7D" stroke-width="0.5" stroke-miterlimit="10"/>
<path d="M110.928 92.9462C110.825 93.0345 110.709 93.1065 110.583 93.1595C110.348 93.2844 109.998 93.4642 109.537 93.6592C108.229 94.2274 106.875 94.686 105.491 95.0303C103.434 95.5408 101.326 95.8208 99.2062 95.8652C96.6165 95.9232 94.0267 95.757 91.4658 95.3685C90.1381 95.1708 88.8214 94.9053 87.5208 94.5733C86.3111 94.2545 85.1212 93.8648 83.9573 93.4063C81.9723 92.6478 80.1001 91.6227 78.3922 90.3594C77.2525 89.4975 76.2146 88.5091 75.2985 87.413C74.9934 87.023 74.7646 86.6939 74.609 86.4806C74.4534 86.2674 74.3863 86.1424 74.4015 86.1333C74.7763 86.493 75.125 86.8789 75.445 87.2881C76.4032 88.3188 77.4609 89.2526 78.6028 90.076C81.4798 92.1753 86.1357 94.1132 91.539 94.8749C94.0734 95.255 96.6344 95.4303 99.197 95.399C101.287 95.3754 103.369 95.1344 105.409 94.6799C106.787 94.3667 108.142 93.9595 109.464 93.4611C109.942 93.262 110.431 93.0901 110.928 92.9462Z" fill="#7C7A7D" stroke="#7C7A7D" stroke-width="0.5" stroke-miterlimit="10"/>
<path d="M111.178 74.2351C111.245 73.8784 111.354 73.5307 111.502 73.1992C111.743 72.5441 112.112 71.6056 112.557 70.457C113.473 68.1413 114.757 64.9725 116.218 61.4472C116.945 59.6983 117.616 58.0225 118.104 56.4655C118.554 55.0932 118.865 53.6795 119.035 52.2455C119.306 49.7897 118.894 48.2693 118.998 48.2571C119.138 48.5938 119.23 48.9488 119.269 49.3113C119.43 50.2921 119.468 51.2888 119.385 52.279C119.262 53.7456 118.979 55.1944 118.54 56.5996C118.007 58.3103 117.386 59.9925 116.679 61.6392C115.227 65.1462 113.884 68.3119 112.893 70.5941C112.396 71.7336 111.978 72.6538 111.691 73.2845C111.559 73.6208 111.387 73.94 111.178 74.2351Z" fill="#7C7A7D" stroke="#7C7A7D" stroke-width="0.5" stroke-miterlimit="10"/>
<path d="M111.807 92.8093C111.715 92.7849 112.075 91.3955 112.27 89.0981C112.295 88.8117 112.316 88.5131 112.341 88.1993C112.365 87.8855 112.365 87.5564 112.38 87.2182C112.417 86.5418 112.411 85.8166 112.414 85.0549C112.414 83.5314 112.353 81.8495 112.304 80.0823C112.255 78.3151 112.255 76.621 112.328 75.0823C112.386 74.3145 112.42 73.5832 112.521 72.9037C112.566 72.5655 112.603 72.2334 112.652 71.9196L112.826 71.0207C112.923 70.5065 113.048 69.9979 113.201 69.4973C113.265 69.2748 113.32 69.0677 113.381 68.8879L113.576 68.3821C113.674 68.0607 113.814 67.7534 113.991 67.468C113.955 67.8034 113.877 68.1331 113.759 68.4491L113.61 68.9641C113.567 69.156 113.521 69.3632 113.469 69.5734C113.375 70.0213 113.244 70.5241 113.164 71.0969C113.122 71.3803 113.073 71.6789 113.024 71.9866C112.975 72.2943 112.96 72.6265 112.926 72.9616C112.841 73.6319 112.826 74.3571 112.78 75.1158C112.734 76.6393 112.746 78.3151 112.795 80.0792C112.844 81.8434 112.884 83.5314 112.868 85.0701C112.85 85.8379 112.841 86.5692 112.786 87.2517C112.762 87.5929 112.749 87.922 112.719 88.2389C112.688 88.5558 112.649 88.8483 112.615 89.153C112.56 89.7349 112.453 90.2529 112.374 90.7069C112.331 90.9354 112.295 91.1457 112.252 91.3407C112.209 91.5357 112.154 91.7063 112.115 91.8647C112.052 92.1911 111.948 92.5084 111.807 92.8093Z" fill="#7C7A7D" stroke="#7C7A7D" stroke-width="0.5" stroke-miterlimit="10"/>
<path d="M109.256 55.6338C109.744 54.2023 110.416 52.84 111.255 51.5814C114.346 46.9531 118.882 45.0549 120.948 44.345C121.448 44.839 121.881 45.3962 122.235 46.0025C122.818 47.0153 123.189 48.1359 123.325 49.2962C123.639 51.3933 123.799 53.5104 123.804 55.6308C123.727 59.2871 124.026 57.7057 124.179 65.4144C124.255 69.2414 124.237 72.3828 124.209 74.4608C124.161 78.0348 124.066 84.1835 123.383 92.1329C123.102 95.4327 122.666 99.6527 121.967 104.561L120.545 104.921C120.424 106.077 120.59 107.244 121.027 108.321C121.349 108.996 121.734 109.639 122.177 110.241C123.258 111.865 123.654 112.084 124.417 113.336C124.855 114.032 125.219 114.771 125.503 115.542C125.974 116.912 126.134 118.369 125.973 119.808C125.605 119.455 125.284 119.055 125.018 118.62C124.63 117.992 124.548 117.593 124.136 116.648C124.045 116.444 123.703 115.667 123.325 115.012C122.833 114.161 122.222 113.384 121.509 112.706C121.641 113.132 121.863 113.83 122.156 114.689C122.678 116.213 122.855 116.581 122.968 117.368C123.069 118.086 123.056 118.816 122.928 119.531C122.727 120.619 122.357 121.076 122.153 121.286C121.949 121.496 121.674 121.776 121.393 121.728C121.024 121.667 120.881 121.1 120.478 119.915C120.478 119.915 120.274 119.33 119.822 118.151C119.351 116.929 118.712 115.779 117.921 114.735C117.425 114.086 116.867 113.488 116.255 112.946C116.67 113.832 117.04 114.738 117.363 115.661C117.686 116.575 117.86 117.23 118.168 118.385C119.084 121.828 118.888 122.13 118.742 122.224C118.437 122.419 117.869 122.081 117.589 121.84C116.997 121.338 116.914 120.622 116.759 119.927C116.533 118.9 116.036 117.956 115.682 116.968C115.16 115.568 114.532 114.209 113.802 112.904C113.568 112.48 113.25 111.947 112.732 111.859C112.381 111.798 112.185 111.984 111.328 112.273C110.471 112.563 110.498 112.425 110.047 112.623C109.116 113.035 109.131 113.553 108.25 113.885C107.847 114.037 107.093 114.211 106.871 113.915C106.605 113.562 107.206 112.697 107.524 112.246C108.054 111.487 108.363 111.35 109.519 110.189C110.257 109.452 110.233 109.403 111.017 108.632C111.85 107.815 111.99 107.754 112.326 107.389C112.997 106.636 113.487 105.741 113.76 104.772C113.043 104.522 112.292 104.235 111.514 103.9C110.462 103.449 109.498 102.986 108.625 102.502C109.943 95.7984 110.785 90.061 111.34 85.6064C112.088 79.607 112.686 74.674 112.671 68.0257C112.671 64.2261 112.457 61.0604 112.262 58.827L109.256 55.6338Z" fill="white"/>
<path d="M122.144 104.22C122.128 104.01 122.136 103.798 122.168 103.589C122.202 103.178 122.257 102.572 122.336 101.795C122.489 100.235 122.711 97.98 122.946 95.189C123.419 89.6101 123.892 81.8831 123.971 73.3426C124.011 69.0769 123.956 65.0001 123.837 61.3011C123.718 57.6022 123.532 54.2719 123.361 51.4779C123.329 50.228 123.164 48.9851 122.87 47.7698C122.638 46.8611 122.198 46.0185 121.585 45.3078C121.198 44.8583 120.722 44.4924 120.188 44.2323C119.819 44.0586 119.605 44.0068 119.611 43.9855C119.618 43.9641 119.669 43.9855 119.773 44.0038C119.929 44.0346 120.081 44.0805 120.228 44.1409C120.799 44.3713 121.311 44.7251 121.729 45.1768C122.39 45.8924 122.873 46.7536 123.138 47.6905C123.466 48.9203 123.658 50.1821 123.712 51.4535C123.932 54.2475 124.145 57.5808 124.295 61.2859C124.444 64.9909 124.508 69.0677 124.469 73.3456C124.389 81.9044 123.858 89.6436 123.297 95.2194C123.019 98.0104 122.742 100.262 122.531 101.816C122.424 102.593 122.336 103.193 122.272 103.602C122.249 103.811 122.206 104.018 122.144 104.22Z" fill="#7C7A7D" stroke="#7C7A7D" stroke-width="0.5" stroke-miterlimit="10"/>
<path d="M112.86 59.4456C112.747 59.5309 111.963 58.6625 110.974 57.6174C109.986 56.5723 109.168 55.7375 109.259 55.6308C109.351 55.5242 110.33 56.2067 111.334 57.2761C112.338 58.3456 112.969 59.3663 112.86 59.4456Z" fill="#7C7A7D" stroke="#7C7A7D" stroke-width="0.5" stroke-miterlimit="10"/>
<path d="M108.988 102.179C108.968 102.03 108.968 101.879 108.988 101.731C109.012 101.426 109.055 101.012 109.113 100.46C109.232 99.3602 109.418 97.7697 109.665 95.8045C110.138 91.8739 110.885 86.4595 111.532 80.4571C111.837 77.4589 112.072 74.5948 112.203 71.9867C112.335 69.3785 112.365 67.0232 112.35 65.0488C112.335 63.0744 112.249 61.4748 112.188 60.3718C112.152 59.8203 112.13 59.3907 112.118 59.0982C112.095 58.9508 112.095 58.8007 112.118 58.6533C112.168 58.7938 112.197 58.9404 112.206 59.089C112.249 59.3785 112.304 59.8051 112.368 60.3565C112.487 61.4595 112.612 63.0592 112.692 65.0397C112.771 67.0202 112.756 69.3846 112.649 72.0049C112.542 74.6253 112.325 77.4894 112.014 80.5089C111.383 86.5235 110.562 91.9349 110.001 95.8532C109.711 97.8093 109.47 99.3937 109.293 100.488C109.204 101.033 109.131 101.457 109.076 101.743C109.068 101.892 109.038 102.038 108.988 102.179Z" fill="#7C7A7D" stroke="#7C7A7D" stroke-width="0.5" stroke-miterlimit="10"/>
<path d="M121.958 104.568C121.976 104.619 121.232 104.939 119.953 105.177C119.604 105.244 119.252 105.294 118.898 105.326C118.516 105.378 118.107 105.387 117.677 105.408C116.741 105.42 115.805 105.354 114.879 105.21C113.957 105.052 113.049 104.815 112.167 104.504C111.764 104.348 111.38 104.199 111.035 104.037C110.711 103.894 110.394 103.734 110.086 103.559C108.948 102.922 108.347 102.383 108.381 102.34C108.414 102.298 109.095 102.706 110.245 103.254C110.55 103.391 110.855 103.538 111.2 103.669C111.545 103.8 111.92 103.94 112.317 104.08C113.182 104.359 114.066 104.576 114.962 104.729C115.859 104.87 116.766 104.946 117.674 104.958C118.092 104.958 118.492 104.958 118.864 104.927C119.236 104.897 119.584 104.875 119.901 104.839C121.164 104.683 121.936 104.488 121.958 104.568Z" fill="#7C7A7D" stroke="#7C7A7D" stroke-width="0.5" stroke-miterlimit="10"/>
<path d="M110.751 112.127C110.788 112.185 110.092 112.736 108.921 113.617L107.969 114.324C107.876 114.395 107.78 114.46 107.679 114.519C107.547 114.599 107.394 114.638 107.24 114.631C107.15 114.626 107.063 114.6 106.984 114.557C106.906 114.514 106.838 114.454 106.785 114.382C106.694 114.252 106.638 114.103 106.62 113.946C106.586 113.66 106.628 113.37 106.742 113.105C106.858 112.876 106.962 112.627 107.102 112.398C107.24 112.162 107.392 111.934 107.557 111.716C107.639 111.606 107.722 111.49 107.81 111.383L108.085 111.063C108.799 110.297 109.563 109.578 110.373 108.912C111.015 108.372 111.626 107.797 112.204 107.188C112.451 106.929 112.646 106.676 112.814 106.453C112.982 106.231 113.119 106.021 113.232 105.844C113.427 105.5 113.552 105.311 113.586 105.323C113.619 105.335 113.552 105.552 113.4 105.932C113.305 106.112 113.198 106.341 113.043 106.591C112.866 106.871 112.673 107.141 112.463 107.398C111.91 108.05 111.31 108.661 110.669 109.226C109.891 109.897 109.15 110.609 108.448 111.359L108.185 111.664C108.1 111.764 108.024 111.874 107.944 111.968C107.79 112.172 107.646 112.383 107.514 112.602C107.38 112.815 107.282 113.041 107.166 113.254C107.084 113.441 107.05 113.645 107.069 113.848C107.073 113.928 107.097 114.006 107.139 114.074C107.152 114.096 107.171 114.115 107.193 114.129C107.216 114.143 107.241 114.151 107.267 114.153C107.374 114.174 107.545 114.068 107.722 113.943L108.707 113.288C109.946 112.532 110.715 112.069 110.751 112.127Z" fill="#7C7A7D" stroke="#7C7A7D" stroke-width="0.5" stroke-miterlimit="10"/>
<path d="M126.262 118.574C126.183 118.574 126.064 117.754 125.652 116.487C125.405 115.752 125.099 115.039 124.737 114.354C124.276 113.515 123.748 112.715 123.157 111.962C122.546 111.143 121.936 110.357 121.46 109.577C121.031 108.887 120.701 108.14 120.481 107.358C120.334 106.83 120.273 106.282 120.301 105.734C120.334 105.347 120.402 105.143 120.432 105.146C120.514 105.146 120.389 106.002 120.82 107.258C121.075 107.989 121.42 108.686 121.848 109.333C122.324 110.073 122.931 110.835 123.556 111.664C124.164 112.438 124.697 113.268 125.146 114.144C125.504 114.865 125.789 115.621 125.997 116.399C126.327 117.715 126.311 118.571 126.262 118.574Z" fill="#7C7A7D" stroke="#7C7A7D" stroke-width="0.5" stroke-miterlimit="10"/>
<path d="M116.1 112.657C116.312 112.923 116.484 113.219 116.609 113.535C117.017 114.362 117.373 115.214 117.677 116.085C118.132 117.376 118.487 118.7 118.739 120.046C118.812 120.424 118.876 120.817 118.934 121.219C118.962 121.423 118.995 121.606 119.014 121.844C119.023 121.969 119.015 122.095 118.989 122.218C118.956 122.373 118.874 122.512 118.754 122.614C118.689 122.669 118.613 122.71 118.531 122.735C118.449 122.76 118.363 122.769 118.278 122.761C118.131 122.74 117.991 122.682 117.872 122.593C117.672 122.439 117.507 122.245 117.387 122.023C117.183 121.615 117.009 121.222 116.829 120.805C116.14 119.153 115.645 117.532 115.099 116.109C114.642 114.844 114.047 113.632 113.327 112.496C113.209 112.284 113.021 112.119 112.796 112.029C112.584 111.97 112.36 111.97 112.149 112.029C111.783 112.144 111.434 112.307 111.111 112.514C110.535 112.849 110.135 112.864 110.138 112.819C110.44 112.682 110.731 112.522 111.008 112.34C111.331 112.091 111.692 111.894 112.076 111.755C112.338 111.666 112.621 111.656 112.89 111.725C113.188 111.825 113.444 112.024 113.613 112.288C114.396 113.426 115.039 114.653 115.526 115.945C116.103 117.377 116.609 118.992 117.29 120.613C117.458 121.012 117.644 121.42 117.824 121.783C117.905 121.941 118.019 122.08 118.159 122.191C118.21 122.231 118.27 122.259 118.333 122.27C118.353 122.272 118.373 122.271 118.392 122.265C118.411 122.259 118.428 122.249 118.443 122.237C118.484 122.185 118.513 122.125 118.528 122.06C118.543 121.996 118.544 121.93 118.532 121.865C118.532 121.688 118.486 121.472 118.464 121.28C118.413 120.884 118.355 120.5 118.29 120.122C118.059 118.791 117.742 117.476 117.342 116.185C116.652 113.989 116.024 112.691 116.1 112.657Z" fill="#7C7A7D" stroke="#7C7A7D" stroke-width="0.5" stroke-miterlimit="10"/>
<path d="M120.682 111.374C120.743 111.347 121.317 112.462 122.18 114.305C122.716 115.395 123.074 116.562 123.242 117.764C123.323 118.491 123.269 119.228 123.084 119.936C122.981 120.315 122.831 120.68 122.635 121.021C122.532 121.197 122.417 121.366 122.29 121.527C122.144 121.715 121.95 121.861 121.729 121.95C121.596 121.997 121.452 122.008 121.313 121.98C121.175 121.952 121.046 121.887 120.942 121.792C120.777 121.629 120.654 121.428 120.585 121.207C120.515 121.006 120.475 120.823 120.423 120.649C120.371 120.475 120.328 120.299 120.274 120.125C120.072 119.462 119.835 118.81 119.563 118.172C119.102 117.089 118.548 116.048 117.906 115.061C116.808 113.373 115.917 112.474 115.981 112.413C116.235 112.57 116.462 112.768 116.652 112.998C117.215 113.579 117.732 114.203 118.199 114.863C118.895 115.844 119.493 116.891 119.984 117.989C120.275 118.637 120.527 119.303 120.737 119.982C120.798 120.159 120.847 120.338 120.899 120.518C120.951 120.698 120.997 120.884 121.052 121.039C121.095 121.183 121.171 121.314 121.274 121.423C121.312 121.459 121.359 121.484 121.411 121.494C121.462 121.505 121.515 121.5 121.564 121.481C121.802 121.402 122.028 121.07 122.208 120.774C122.384 120.471 122.52 120.146 122.614 119.808C122.79 119.156 122.849 118.479 122.788 117.806C122.644 116.65 122.33 115.52 121.857 114.455C121.079 112.572 120.615 111.402 120.682 111.374Z" fill="#7C7A7D" stroke="#7C7A7D" stroke-width="0.5" stroke-miterlimit="10"/>
<path d="M121.534 121.962C121.46 121.962 121.408 121.389 121.35 120.466C121.298 119.274 121.158 118.088 120.929 116.917C120.689 115.761 120.238 114.659 119.599 113.666C119.102 112.91 118.684 112.523 118.727 112.462C118.769 112.401 119.282 112.715 119.886 113.458C120.644 114.445 121.166 115.591 121.412 116.81C121.655 118.013 121.752 119.24 121.698 120.466C121.671 121.393 121.598 121.962 121.534 121.962Z" fill="#7C7A7D" stroke="#7C7A7D" stroke-width="0.5" stroke-miterlimit="10"/>
<path d="M126.119 118.09C126.14 118.071 126.275 118.184 126.378 118.468C126.453 118.688 126.476 118.923 126.446 119.154C126.417 119.386 126.335 119.607 126.208 119.802C126.156 119.878 126.098 119.954 126.037 120.037C125.976 120.119 125.97 120.052 125.93 120.037L125.814 119.945C125.726 119.883 125.644 119.813 125.57 119.735L125.472 119.641C125.445 119.613 125.42 119.583 125.396 119.555C125.173 119.311 124.978 119.043 124.813 118.757C124.462 118.115 124.157 117.449 123.898 116.764C123.415 115.57 122.757 114.454 121.945 113.452C121.32 112.678 120.865 112.252 120.917 112.194C120.969 112.136 121.497 112.483 122.208 113.221C123.132 114.191 123.862 115.328 124.359 116.572C124.609 117.238 124.894 117.89 125.213 118.525C125.354 118.792 125.52 119.045 125.707 119.281C125.728 119.309 125.75 119.335 125.774 119.36L125.826 119.421C125.844 119.443 125.863 119.467 125.884 119.488L125.915 119.522C125.915 119.522 125.936 119.552 125.945 119.522L126 119.461C126.045 119.401 126.08 119.334 126.104 119.263C126.138 119.173 126.164 119.08 126.18 118.986C126.204 118.828 126.204 118.668 126.18 118.51C126.156 118.251 126.086 118.108 126.119 118.09Z" fill="#7C7A7D" stroke="#7C7A7D" stroke-width="0.5" stroke-miterlimit="10"/>
<path d="M93.0553 21.4625C92.4847 21.0451 90.5992 19.7379 89.748 17.3796C89.2241 15.8006 89.1627 14.105 89.571 12.4924C89.9606 10.9751 90.691 9.56641 91.7067 8.37291C92.553 7.30379 93.5498 6.36268 94.6662 5.57889C96.9352 3.92183 99.6268 2.93852 102.431 2.7422C104.538 2.61335 106.647 2.94075 108.615 3.70198C110.702 3.7158 112.769 4.10491 114.717 4.85067C115.921 5.30435 117.062 5.90947 118.113 6.6514C119.044 7.32782 120.319 8.25713 121.237 9.90552C122.089 11.429 122.205 12.8092 122.311 14.031C122.363 14.6587 122.439 16.0268 121.631 20.3595C121.308 22.081 120.99 23.5039 120.752 24.5155C121.205 24.7081 121.581 25.0458 121.82 25.4753C122.189 26.1822 121.985 26.9073 121.805 27.5381C121.55 28.4056 121.08 29.1947 120.438 29.8324C121.477 30.0422 122.455 30.4861 123.297 31.1304C124.587 32.1359 125.155 33.3516 125.756 34.6861C126.361 36.0564 126.772 37.5045 126.976 38.9884C127.277 40.9926 127.303 43.0284 127.053 45.0396C126.86 47.0353 126.723 48.4521 125.985 50.2194C125.536 51.2949 124.999 52.5777 123.736 53.766C122.273 55.0964 120.406 55.8988 118.433 56.0451C116.403 56.1914 114.377 55.7026 112.637 54.6465C110.77 53.4721 109.336 51.7238 108.551 49.6648C108.031 48.3351 107.75 46.924 107.721 45.4966C107.602 43.2188 107.938 40.9401 108.71 38.7934C100.131 27.9067 95.5967 23.3181 93.0553 21.4625Z" fill="#7C7A7D"/>
<path d="M108.512 6.74892C107.118 6.28738 105.642 6.12945 104.182 6.28579C101.769 6.55696 100.131 7.64776 98.7759 8.54965C96.9909 9.73935 95.4397 11.2461 94.1994 12.9951C93.9919 13.8056 93.7417 14.8598 93.5068 16.1091C93.1657 17.9167 92.9324 19.743 92.8081 21.5783C92.6586 23.8665 92.5427 25.585 92.8569 27.8793C93.0532 29.7022 93.5555 31.479 94.3428 33.1353C94.837 34.1438 95.4716 35.4052 96.8019 36.4625C97.4544 36.9704 98.1728 37.3875 98.9376 37.7026C99.521 37.9427 100.127 38.1234 100.747 38.2419C100.695 39.0185 100.706 39.7979 100.777 40.5728C100.877 41.6384 101.094 42.6898 101.424 43.7081C101.938 43.7799 102.46 43.7799 102.974 43.7081C103.794 43.5658 104.577 43.2612 105.278 42.8123C106.489 42.1027 107.616 41.2562 108.634 40.2895C108.531 39.7872 108.466 39.2779 108.438 38.766C108.391 37.8024 108.481 36.8369 108.707 35.8988C108.975 35.5149 109.39 34.9482 109.927 34.2931C110.8 33.2541 111.196 32.9555 111.663 32.3461C112.313 31.4782 112.761 30.477 112.975 29.415C113.646 29.5392 114.338 29.4883 114.984 29.2673C115.629 29.0464 116.207 28.6627 116.661 28.1536C117.295 27.4101 117.381 26.6606 117.54 25.2498C117.686 23.9458 117.814 22.8123 117.088 21.9531C116.743 21.5569 116.283 21.2794 115.771 21.1601C115.259 21.0408 114.723 21.0859 114.238 21.2888C113.218 19.9394 112.334 18.4921 111.599 16.9683C110.598 14.8781 110.074 13.1048 109.439 10.713C109.03 9.04325 108.713 7.66604 108.512 6.74892Z" fill="white"/>
<path d="M98.6602 37.666C98.3167 37.5844 97.991 37.4409 97.6991 37.2425C96.8699 36.7484 96.1328 36.1144 95.5207 35.3686C94.608 34.2621 93.9143 32.9923 93.4765 31.627C92.9556 29.9688 92.6711 28.2456 92.6314 26.5082C92.5269 23.3617 92.7714 20.2133 93.3606 17.1206C93.5864 15.9384 93.8213 14.9878 94.0044 14.3479C94.0752 14.0045 94.19 13.6717 94.3461 13.3577C94.4254 13.379 94.0715 14.8202 93.7054 17.1816C93.2283 20.2541 93.0343 23.3637 93.1257 26.4716C93.1666 28.1706 93.4312 29.8568 93.9128 31.4869C94.3164 32.8082 94.954 34.0466 95.7953 35.1432C96.3643 35.8835 97.0409 36.5346 97.8028 37.0749C98.1011 37.2533 98.3874 37.4508 98.6602 37.666Z" fill="#7C7A7D" stroke="#7C7A7D" stroke-width="0.5" stroke-miterlimit="10"/>
<path d="M113.04 29.2505C113.085 29.4992 113.07 29.7551 112.997 29.997C112.851 30.6646 112.592 31.3024 112.231 31.8831C111.702 32.7392 111.074 33.5306 110.361 34.2414C109.494 35.1191 108.518 35.882 107.456 36.5113C106.395 37.1464 105.242 37.6169 104.039 37.9068C103.059 38.1548 102.047 38.2575 101.037 38.2115C100.354 38.1974 99.6784 38.0729 99.0356 37.8428C98.581 37.6661 98.3736 37.4924 98.3858 37.4681C98.6267 37.5108 98.8635 37.574 99.0936 37.657C99.7328 37.8098 100.389 37.8784 101.046 37.8611C102.019 37.8556 102.987 37.7256 103.926 37.4742C105.078 37.1645 106.18 36.6947 107.2 36.0787C109.071 34.9664 110.684 33.4698 111.932 31.6881C112.887 30.2987 112.957 29.217 113.04 29.2505Z" fill="#7C7A7D" stroke="#7C7A7D" stroke-width="0.5" stroke-miterlimit="10"/>
<path d="M112.85 29.3723C112.85 29.354 112.908 29.3479 113 29.351H113.171H113.402C113.887 29.3585 114.37 29.2801 114.827 29.1194C115.493 28.8925 116.086 28.4941 116.548 27.9646C117.092 27.2884 117.412 26.46 117.463 25.5941C117.565 24.7212 117.512 23.8371 117.305 22.9829C117.205 22.6263 117.04 22.2915 116.817 21.9957C116.625 21.7452 116.376 21.5446 116.09 21.4107C115.67 21.2001 115.186 21.1523 114.733 21.2766C114.428 21.3802 114.269 21.5234 114.242 21.4899C114.214 21.4564 114.321 21.2797 114.66 21.0999C114.907 20.9917 115.174 20.9358 115.444 20.9358C115.714 20.9358 115.981 20.9917 116.228 21.0999C116.583 21.2356 116.898 21.4589 117.143 21.7489C117.418 22.0754 117.626 22.4535 117.753 22.861C118.007 23.7704 118.082 24.7204 117.973 25.6581C117.926 26.148 117.814 26.6296 117.64 27.0902C117.47 27.5256 117.223 27.927 116.911 28.2754C116.382 28.8565 115.697 29.2732 114.937 29.4759C114.435 29.6184 113.908 29.6496 113.393 29.5673C113.255 29.5471 113.12 29.5103 112.991 29.4576C112.887 29.415 112.847 29.3875 112.85 29.3723Z" fill="#7C7A7D" stroke="#7C7A7D" stroke-width="0.5" stroke-miterlimit="10"/>
<path d="M101.58 44.0525C101.455 44.0952 100.936 42.8338 100.717 41.1915C100.497 39.5492 100.659 38.1933 100.79 38.2024C100.921 38.2116 100.991 39.5248 101.211 41.1244C101.431 42.7241 101.717 44.0099 101.58 44.0525Z" fill="#7C7A7D" stroke="#7C7A7D" stroke-width="0.5" stroke-miterlimit="10"/>
<path d="M108.439 40.1585C108.466 40.1585 108.494 40.2864 108.457 40.5089C108.399 40.826 108.272 41.1266 108.085 41.3894C107.812 41.7738 107.478 42.1113 107.096 42.3888C106.645 42.7241 106.172 43.0294 105.681 43.3029C105.196 43.587 104.685 43.8247 104.155 44.0128C103.712 44.1727 103.245 44.2582 102.773 44.2657C101.949 44.2657 101.51 43.961 101.537 43.9184C101.565 43.8757 102.022 44.0037 102.758 43.9184C103.185 43.861 103.603 43.7494 104.003 43.5863C104.502 43.3828 104.986 43.1445 105.452 42.8733C106.468 42.3035 107.353 41.749 107.819 41.1853C108.286 40.6216 108.356 40.1402 108.439 40.1585Z" fill="#7C7A7D" stroke="#7C7A7D" stroke-width="0.5" stroke-miterlimit="10"/>
<path d="M108.799 40.6217C108.677 40.6643 108.216 39.4669 108.253 37.9099C108.289 36.3529 108.78 35.1677 108.902 35.2225C109.024 35.2774 108.771 36.4413 108.75 37.9191C108.729 39.3968 108.939 40.5851 108.799 40.6217Z" fill="#7C7A7D" stroke="#7C7A7D" stroke-width="0.5" stroke-miterlimit="10"/>
<path d="M99.9444 13.833C99.8864 13.8848 99.6759 13.7081 99.3067 13.5283C99.0911 13.4275 98.865 13.3509 98.6325 13.2998C98.0618 13.1793 97.4694 13.2108 96.9147 13.3912C96.6887 13.469 96.4718 13.5712 96.2679 13.6959C95.9201 13.9092 95.7279 14.1042 95.6577 14.0585C95.5876 14.0128 95.7035 13.7538 96.0513 13.4156C96.2557 13.2283 96.491 13.0777 96.7469 12.9708C97.0616 12.8407 97.3956 12.7635 97.7355 12.7422C98.0755 12.728 98.4155 12.7692 98.7423 12.8641C99.0079 12.9448 99.2577 13.0705 99.4806 13.2358C99.8651 13.5222 99.9901 13.7965 99.9444 13.833Z" fill="#7C7A7D" stroke="#7C7A7D" stroke-width="0.5" stroke-miterlimit="10"/>
<path d="M100.988 28.1323C100.951 28.178 100.295 27.7057 99.5539 26.6515C99.3548 26.3578 99.1735 26.0526 99.0108 25.7374C98.8895 25.5388 98.83 25.3087 98.8399 25.0762C98.8744 24.851 98.9477 24.6335 99.0566 24.4333C99.4105 23.6686 99.8529 22.8611 100.304 22.0171C100.738 21.2379 101.121 20.4319 101.452 19.604C101.714 18.9311 101.9 18.231 102.007 17.5168C102.181 16.2981 101.986 15.5272 102.068 15.5119C102.15 15.4967 102.446 16.2554 102.358 17.5534C102.296 18.3063 102.136 19.0479 101.882 19.7594C101.569 20.6189 101.188 21.4523 100.744 22.2517C100.289 23.1018 99.8285 23.894 99.4715 24.6314C99.3812 24.7841 99.3143 24.9494 99.2732 25.1219C99.2659 25.2748 99.3041 25.4265 99.383 25.5576C99.5356 25.8837 99.6881 26.167 99.8498 26.4474C100.472 27.5229 101.031 28.0775 100.988 28.1323Z" fill="#7C7A7D" stroke="#7C7A7D" stroke-width="0.5" stroke-miterlimit="10"/>
<path d="M98.2973 20.8868C98.1722 20.9294 97.7542 19.8904 97.742 18.5315C97.7298 17.1726 98.1203 16.1275 98.2454 16.1671C98.3705 16.2067 98.221 17.2457 98.2454 18.5285C98.2698 19.8112 98.4376 20.8502 98.2973 20.8868Z" fill="#7C7A7D" stroke="#7C7A7D" stroke-width="0.5" stroke-miterlimit="10"/>
<path d="M106.059 20.719C105.922 20.7008 105.937 19.805 106.022 18.7507C106.108 17.6965 106.245 16.8129 106.382 16.8159C106.52 16.819 106.608 17.7056 106.52 18.7934C106.431 19.8811 106.196 20.7465 106.059 20.719Z" fill="#7C7A7D" stroke="#7C7A7D" stroke-width="0.5" stroke-miterlimit="10"/>
<path d="M110.248 16.8159C110.178 16.8372 110.028 16.5112 109.729 16.0054C109.36 15.3705 108.835 14.8399 108.204 14.4636C107.571 14.1199 106.832 14.0243 106.132 14.1955C105.595 14.3326 105.315 14.5825 105.26 14.5246C105.205 14.4667 105.421 14.1224 106.019 13.8634C106.411 13.7094 106.831 13.6443 107.251 13.6728C107.67 13.7012 108.078 13.8225 108.445 14.0279C109.162 14.4461 109.72 15.0887 110.035 15.8561C110.279 16.4137 110.309 16.7976 110.248 16.8159Z" fill="#7C7A7D" stroke="#7C7A7D" stroke-width="0.5" stroke-miterlimit="10"/>
<path d="M107.658 28.7875C107.706 28.8179 107.441 29.3359 106.779 29.988C105.898 30.8314 104.823 31.4466 103.649 31.7795C102.477 32.126 101.236 32.171 100.042 31.9106C99.6729 31.8364 99.324 31.6825 99.0203 31.4596C98.8098 31.289 98.7427 31.1549 98.764 31.1305C98.7854 31.1062 98.9044 31.1915 99.1241 31.2951C99.4359 31.4369 99.7687 31.5275 100.11 31.5632C101.249 31.7099 102.407 31.6207 103.511 31.3012C104.616 30.9804 105.647 30.4451 106.544 29.7259C107.234 29.1683 107.597 28.7387 107.658 28.7875Z" fill="#7C7A7D" stroke="#7C7A7D" stroke-width="0.5" stroke-miterlimit="10"/>
<path d="M107.053 6.94095C107.023 7.03235 106.193 6.63625 104.774 6.63625C103.944 6.6606 103.122 6.80426 102.334 7.06282C101.37 7.38036 100.448 7.81204 99.5877 8.34862C98.0028 9.32482 96.5707 10.5291 95.3377 11.9227C94.3888 12.9921 93.8945 13.7508 93.8274 13.696C93.7603 13.6411 94.1691 12.8489 95.0692 11.6972C96.258 10.1971 97.7043 8.91987 99.3406 7.9251C100.236 7.37276 101.2 6.94045 102.209 6.6393C103.04 6.39021 103.906 6.27502 104.774 6.29805C105.357 6.31783 105.933 6.43205 106.48 6.63625C106.873 6.78555 107.066 6.91657 107.053 6.94095Z" fill="#7C7A7D" stroke="#7C7A7D" stroke-width="0.5" stroke-miterlimit="10"/>
<path d="M114.108 20.2713C114.071 20.3109 113.375 19.7441 112.53 18.5833C112.045 17.8973 111.616 17.1739 111.246 16.4199C110.801 15.4964 110.42 14.5435 110.105 13.568C109.548 11.8035 109.092 10.0091 108.738 8.19326C108.451 6.80691 108.308 5.93853 108.375 5.9233C108.442 5.90807 108.707 6.74597 109.08 8.11099C109.452 9.47601 109.912 11.3742 110.578 13.4126C110.888 14.3696 111.252 15.3085 111.667 16.2249C112.009 16.9688 112.396 17.6913 112.826 18.3883C113.564 19.5705 114.162 20.2134 114.108 20.2713Z" fill="#7C7A7D" stroke="#7C7A7D" stroke-width="0.5" stroke-miterlimit="10"/>
<path d="M120.932 24.5276C120.922 24.1413 120.955 23.755 121.03 23.3759C121.128 22.6386 121.28 21.5721 121.482 20.2589C121.683 18.9457 121.961 17.3887 122.07 15.655C122.13 14.7545 122.101 13.8504 121.985 12.9554C121.859 12.0002 121.572 11.0731 121.137 10.2132C120.242 8.5782 118.876 7.24922 117.216 6.39846C116.497 6.00952 115.735 5.70289 114.946 5.48438C114.256 5.29501 113.552 5.15852 112.841 5.07609C111.806 4.96388 110.763 4.93942 109.723 5.00297C109.341 5.04889 108.955 5.06316 108.57 5.04562C108.935 4.91508 109.317 4.83612 109.705 4.81101C110.756 4.67005 111.82 4.64247 112.878 4.72874C113.611 4.78495 114.338 4.90525 115.05 5.08828C115.874 5.2916 116.672 5.59018 117.427 5.97798C119.191 6.85772 120.64 8.26027 121.576 9.99383C122.04 10.8985 122.341 11.877 122.467 12.8854C122.582 13.8133 122.601 14.7505 122.525 15.6824C122.378 17.2389 122.145 18.7861 121.826 20.3168C121.582 21.6209 121.375 22.6782 121.216 23.4033C121.163 23.7874 121.068 24.1644 120.932 24.5276Z" fill="#7C7A7D" stroke="#7C7A7D" stroke-width="0.5" stroke-miterlimit="10"/>
<path d="M120.31 29.7502C120.264 29.6862 120.539 29.4455 120.869 28.9976C121.291 28.4086 121.567 27.7276 121.674 27.011C121.732 26.6211 121.732 26.2248 121.674 25.8349C121.651 25.6639 121.615 25.4948 121.567 25.3291C121.538 25.1908 121.486 25.0581 121.415 24.9361C121.327 24.7616 121.18 24.6243 121 24.5491C120.875 24.5095 120.783 24.5491 120.765 24.5156C120.746 24.4821 120.801 24.3785 121.012 24.3572C121.148 24.3617 121.281 24.398 121.401 24.4631C121.521 24.5281 121.624 24.6202 121.701 24.7319C121.814 24.8711 121.9 25.0289 121.958 25.1981C122.031 25.3784 122.087 25.5651 122.126 25.7557C122.217 26.1927 122.231 26.6425 122.165 27.0842C122.05 27.8838 121.691 28.6286 121.137 29.217C120.704 29.6588 120.341 29.799 120.31 29.7502Z" fill="#7C7A7D" stroke="#7C7A7D" stroke-width="0.5" stroke-miterlimit="10"/>
<path d="M108.191 3.31811C107.78 3.27735 107.372 3.20606 106.971 3.10483C105.864 2.90915 104.739 2.82747 103.615 2.86108C101.95 2.91387 100.304 3.22217 98.7334 3.77515C97.809 4.10144 96.9156 4.50931 96.0638 4.99392C95.1581 5.5192 94.3058 6.13149 93.5192 6.82207C91.9887 8.15217 90.8028 9.832 90.0624 11.7185C89.7522 12.5401 89.5621 13.4021 89.498 14.2779C89.4528 15.0411 89.5124 15.8069 89.675 16.5539C89.9126 17.6439 90.3945 18.6658 91.0845 19.543C91.5818 20.1524 91.9357 20.4327 91.9083 20.4571C91.8808 20.4814 91.8015 20.4113 91.6276 20.2864C91.5197 20.211 91.4177 20.1275 91.3225 20.0366C91.1861 19.9183 91.0576 19.791 90.9381 19.6557C90.1587 18.7885 89.6073 17.7415 89.3332 16.6088C89.1391 15.8311 89.0559 15.03 89.0861 14.2291C89.1341 13.3093 89.3181 12.4017 89.6322 11.5357C90.3751 9.5639 91.5964 7.80712 93.1867 6.42293C94.0002 5.70803 94.8833 5.0762 95.8227 4.53688C96.7048 4.04908 97.6289 3.64119 98.5839 3.31811C100.203 2.77658 101.899 2.50081 103.606 2.50154C104.751 2.49781 105.892 2.6339 107.005 2.90678C107.416 2.99177 107.815 3.13005 108.191 3.31811Z" fill="#7C7A7D" stroke="#7C7A7D" stroke-width="0.5" stroke-miterlimit="10"/>
<path d="M108.64 40.2621C108.689 40.2804 108.377 41.0025 108.109 42.3737C107.945 43.2045 107.863 44.0496 107.865 44.8965C107.856 46.016 107.996 47.1317 108.28 48.2146C108.617 49.5244 109.188 50.7629 109.964 51.8709C110.858 53.1327 112.058 54.1475 113.451 54.8203C113.821 55.0009 114.201 55.1596 114.589 55.2957C114.989 55.4272 115.397 55.5351 115.81 55.6186C116.231 55.7062 116.657 55.7672 117.085 55.8014C117.522 55.8304 117.96 55.8304 118.397 55.8014C120.226 55.7175 121.972 55.0172 123.352 53.8148C124.74 52.5595 125.6 50.8685 126.098 49.1713C126.562 47.5122 126.831 45.8045 126.897 44.083C126.999 42.5236 126.975 40.9586 126.827 39.4029C126.701 38.0475 126.393 36.7152 125.912 35.4419C125.506 34.4006 124.94 33.4291 124.234 32.5626C123.706 31.9081 123.09 31.3297 122.403 30.8441C121.796 30.4498 121.155 30.1112 120.487 29.8325C120.676 29.8524 120.862 29.8986 121.039 29.9696C121.555 30.1507 122.048 30.3899 122.51 30.6826C123.241 31.1519 123.898 31.7258 124.462 32.3858C125.212 33.2593 125.816 34.2467 126.253 35.3109C126.77 36.6026 127.108 37.9589 127.257 39.342C127.425 40.9196 127.463 42.5082 127.373 44.0921C127.319 45.8512 127.054 47.5974 126.583 49.2932C126.086 51.1521 125.086 52.8386 123.694 54.1683C122.231 55.4454 120.377 56.1879 118.437 56.2737C117.977 56.3027 117.517 56.3027 117.058 56.2737C116.608 56.2349 116.162 56.1678 115.721 56.0726C115.29 55.9834 114.864 55.8684 114.446 55.7283C114.04 55.5834 113.642 55.4145 113.256 55.2225C111.801 54.5077 110.552 53.4338 109.628 52.1025C108.838 50.9484 108.265 49.6597 107.938 48.2999C107.668 47.1854 107.549 46.0396 107.584 44.8935C107.607 44.031 107.719 43.1732 107.92 42.334C107.959 42.1604 107.996 41.9958 108.036 41.8465L108.17 41.4261C108.233 41.2053 108.31 40.9886 108.399 40.7771C108.46 40.5969 108.54 40.4242 108.64 40.2621Z" fill="#7C7A7D" stroke="#7C7A7D" stroke-width="0.5" stroke-miterlimit="10"/>
<path d="M0.326369 100.826C0.261281 120.515 0.198227 140.203 0.137207 159.89L76.1865 159.558L76.58 99.9026L0.326369 100.826Z" fill="white"/>
<path d="M0.326354 158.608C0.464526 158.608 0.576536 145.679 0.576536 129.732C0.576536 113.784 0.464526 100.856 0.326354 100.856C0.188182 100.856 0.0761719 113.784 0.0761719 129.732C0.0761719 145.679 0.188182 158.608 0.326354 158.608Z" fill="#7C7A7D" stroke="#7C7A7D" stroke-width="0.5" stroke-miterlimit="10"/>
<path d="M38.0216 159.927C58.4373 159.927 74.9875 159.815 74.9875 159.677C74.9875 159.539 58.4373 159.427 38.0216 159.427C17.6059 159.427 1.05566 159.539 1.05566 159.677C1.05566 159.815 17.6059 159.927 38.0216 159.927Z" fill="#7C7A7D" stroke="#7C7A7D" stroke-width="0.5" stroke-miterlimit="10"/>
<path d="M38.1955 100.384C58.8016 100.384 75.5061 100.272 75.5061 100.134C75.5061 99.9961 58.8016 99.8843 38.1955 99.8843C17.5893 99.8843 0.884766 99.9961 0.884766 100.134C0.884766 100.272 17.5893 100.384 38.1955 100.384Z" fill="#7C7A7D" stroke="#7C7A7D" stroke-width="0.5" stroke-miterlimit="10"/>
<path d="M76.4152 158.608C76.5534 158.608 76.6654 145.989 76.6654 130.424C76.6654 114.858 76.5534 102.24 76.4152 102.24C76.2771 102.24 76.165 114.858 76.165 130.424C76.165 145.989 76.2771 158.608 76.4152 158.608Z" fill="#7C7A7D" stroke="#7C7A7D" stroke-width="0.5" stroke-miterlimit="10"/>
<path d="M38.2837 107.48C58.4601 107.48 74.8163 107.368 74.8163 107.23C74.8163 107.092 58.4601 106.98 38.2837 106.98C18.1072 106.98 1.75098 107.092 1.75098 107.23C1.75098 107.368 18.1072 107.48 38.2837 107.48Z" fill="#7C7A7D" stroke="#7C7A7D" stroke-width="0.5" stroke-miterlimit="10"/>
<path d="M33.4967 130.384C33.4433 130.12 33.4127 129.852 33.4051 129.583L33.3716 129.144L33.28 128.62C33.2465 128.431 33.2129 128.227 33.1733 128.01C33.1336 127.794 33.0604 127.572 32.9993 127.328C32.6928 126.157 32.2115 125.038 31.5715 124.01C30.7394 122.649 29.654 121.459 28.374 120.506C28.1971 120.372 28.0171 120.241 27.834 120.107L27.2421 119.744C27.0457 119.616 26.842 119.5 26.6319 119.397L25.9851 119.092C25.8753 119.043 25.7685 118.985 25.6556 118.94L25.323 118.83L24.6213 118.577C24.3833 118.504 24.1331 118.449 23.886 118.385C23.6389 118.313 23.3871 118.258 23.1324 118.221C22.6133 118.126 22.0883 118.067 21.5611 118.044C21.2926 118.044 21.0242 118.007 20.7526 118.017L19.9289 118.062C19.7916 118.062 19.6512 118.062 19.5139 118.093L19.102 118.157C18.8244 118.202 18.5437 118.233 18.2661 118.297C17.7045 118.422 17.152 118.585 16.6124 118.784C16.0588 118.986 15.5196 119.226 14.9984 119.5C14.736 119.644 14.4859 119.805 14.2265 119.964C13.9649 120.118 13.7151 120.291 13.479 120.481C12.9854 120.848 12.5166 121.247 12.0756 121.676L11.4471 122.371L11.2884 122.544L11.145 122.733L10.8521 123.096L10.5653 123.477L10.3182 123.885L10.068 124.315L9.94292 124.519L9.83919 124.735L9.41815 125.609L9.08254 126.524C8.23226 129.057 8.23226 131.799 9.08254 134.333L9.41815 135.247L9.83919 136.118L9.94292 136.335L10.068 136.542L10.3182 136.953L10.5653 137.358L10.8521 137.742L11.1328 138.12L11.2762 138.309L11.4349 138.483L12.0634 139.177C12.5044 139.607 12.9732 140.007 13.4668 140.375C13.7029 140.566 13.9527 140.739 14.2143 140.893C14.4737 141.045 14.7238 141.198 14.9862 141.356C15.5074 141.63 16.0467 141.868 16.6002 142.069C17.1402 142.268 17.6926 142.432 18.2539 142.559C18.5315 142.62 18.8122 142.651 19.0898 142.7L19.5017 142.764C19.639 142.785 19.7794 142.782 19.9166 142.794L20.7404 142.837C21.012 142.837 21.2804 142.818 21.5489 142.809C22.0762 142.789 22.6013 142.731 23.1202 142.636C23.3743 142.595 23.6259 142.54 23.8738 142.471C24.1209 142.404 24.3711 142.352 24.6091 142.279L25.3108 142.026L25.6556 141.901C25.7685 141.859 25.8753 141.801 25.9851 141.749L26.6319 141.444C26.8413 141.339 27.045 141.223 27.2421 141.097L27.8309 140.744L28.374 140.344C29.6552 139.389 30.7416 138.197 31.5745 136.834C32.2143 135.808 32.6956 134.692 33.0024 133.522C33.0634 133.282 33.1427 133.059 33.1763 132.84C33.2099 132.62 33.2495 132.419 33.2831 132.23L33.3746 131.706L33.4082 131.268C33.4157 130.998 33.4463 130.73 33.4997 130.466C33.5198 130.735 33.5198 131.005 33.4997 131.274V131.719L33.4326 132.252L33.3472 132.861C33.3197 133.084 33.2465 133.312 33.1916 133.559C32.9137 134.759 32.4505 135.908 31.8186 136.965C30.9891 138.381 29.8929 139.622 28.5906 140.622L28.0384 141.039L27.4282 141.408C27.2319 141.541 27.0282 141.663 26.818 141.773L26.1529 142.096C26.04 142.148 25.9302 142.209 25.8142 142.255L25.4603 142.389L24.7372 142.654C24.4932 142.733 24.2369 142.791 23.9836 142.861C23.7281 142.936 23.4683 142.995 23.2056 143.038C22.6697 143.139 22.1273 143.203 21.5825 143.23C21.3049 143.23 21.0272 143.272 20.7435 143.266L19.8953 143.227C19.7519 143.227 19.6085 143.227 19.4651 143.196L19.0349 143.132C18.7481 143.087 18.4583 143.056 18.1715 142.995C17.5882 142.868 17.0142 142.701 16.4538 142.496C15.8773 142.291 15.3156 142.046 14.7727 141.764C14.5011 141.615 14.2387 141.46 13.9702 141.286C13.6959 141.132 13.4328 140.959 13.1831 140.768C12.6688 140.389 12.1805 139.975 11.7217 139.531L11.0657 138.812L10.9009 138.629L10.7545 138.434L10.4494 138.041L10.1443 137.645L9.8819 137.221L9.62257 136.798L9.49443 136.581L9.38459 136.356L8.94525 135.442L8.59438 134.488C7.70747 131.854 7.70747 129.002 8.59438 126.368L8.94525 125.414L9.38459 124.5L9.49443 124.275L9.62257 124.062L9.8819 123.635L10.1443 123.212L10.4494 122.818L10.7545 122.422L10.9009 122.227L11.0657 122.048L11.7217 121.329C12.1813 120.884 12.6694 120.47 13.1831 120.088C13.4301 119.893 13.6901 119.715 13.9611 119.555C14.2296 119.397 14.492 119.229 14.7635 119.08C15.3064 118.797 15.8681 118.552 16.4446 118.346C17.0056 118.142 17.5794 117.977 18.1623 117.849C18.4491 117.785 18.739 117.758 19.0258 117.709L19.4559 117.645C19.5993 117.623 19.7427 117.627 19.8861 117.617L20.7465 117.581C21.0303 117.581 21.3079 117.605 21.5855 117.614C22.1306 117.64 22.673 117.705 23.2087 117.809C23.4717 117.851 23.7316 117.91 23.9867 117.986C24.2399 118.056 24.4962 118.114 24.7403 118.19L25.4634 118.458L25.8173 118.589C25.9332 118.638 26.0431 118.696 26.1559 118.751L26.8211 119.074C27.0312 119.183 27.2349 119.304 27.4313 119.436L28.0415 119.808L28.5937 120.226C29.8967 121.224 30.993 122.466 31.8217 123.882C32.454 124.939 32.9173 126.088 33.1946 127.288C33.2495 127.535 33.3227 127.764 33.3502 127.986L33.4356 128.595L33.5028 129.126V129.57C33.521 129.841 33.5189 130.113 33.4967 130.384Z" fill="#7C7A7D" stroke="#7C7A7D" stroke-width="0.5" stroke-miterlimit="10"/>
<path d="M21.0119 131.462C20.8746 131.462 20.539 128.571 20.2614 124.991C19.9837 121.411 19.8678 118.492 20.0051 118.48C20.1424 118.467 20.478 121.362 20.7556 124.951C21.0333 128.54 21.1492 131.456 21.0119 131.462Z" fill="#7C7A7D" stroke="#7C7A7D" stroke-width="0.5" stroke-miterlimit="10"/>
<path d="M25.9495 126.92C28.3854 124.292 30.2778 122.086 30.1764 121.992C30.075 121.898 28.0182 123.953 25.5823 126.58C23.1465 129.208 21.2541 131.415 21.3555 131.508C21.4569 131.602 23.5137 129.548 25.9495 126.92Z" fill="#7C7A7D" stroke="#7C7A7D" stroke-width="0.5" stroke-miterlimit="10"/>
<path d="M28.9202 149.878C28.8718 149.771 28.7998 149.676 28.7096 149.601C28.4215 149.406 28.1013 149.264 27.7638 149.18C26.5079 148.858 25.2234 148.661 23.9287 148.589C21.9996 148.448 20.0636 148.427 18.1318 148.525C17.0457 148.583 15.9046 148.675 14.7391 148.851C14.1499 148.936 13.5662 149.055 12.9909 149.208C12.7046 149.287 12.4251 149.389 12.1549 149.513C12.0293 149.568 11.9105 149.637 11.801 149.72C11.73 149.763 11.6769 149.83 11.6515 149.909C11.6758 149.989 11.7291 150.057 11.801 150.101C11.9099 150.183 12.0288 150.252 12.1549 150.305C12.4245 150.43 12.7042 150.531 12.9909 150.609C13.5662 150.762 14.1499 150.881 14.7391 150.966C15.8638 151.131 16.9962 151.24 18.1318 151.292C20.0636 151.39 21.9995 151.37 23.9287 151.231C25.2243 151.151 26.5089 150.944 27.7638 150.613C28.1011 150.53 28.4212 150.388 28.7096 150.195C28.7998 150.12 28.8718 150.025 28.9202 149.918C28.9202 149.918 28.9629 150.076 28.7768 150.268C28.4993 150.508 28.1752 150.687 27.8248 150.795C26.5702 151.198 25.2729 151.453 23.9592 151.557C22.0209 151.748 20.0718 151.804 18.1257 151.725C16.9739 151.684 15.8251 151.582 14.6842 151.42C14.0744 151.337 13.4702 151.217 12.8749 151.06C12.5618 150.978 12.2557 150.871 11.9596 150.74C11.8002 150.668 11.6488 150.579 11.5081 150.475C11.4263 150.412 11.3534 150.339 11.2915 150.256C11.2162 150.15 11.1738 150.024 11.1694 149.893C11.1739 149.764 11.2163 149.639 11.2915 149.534C11.3517 149.45 11.4248 149.376 11.5081 149.315C11.6474 149.208 11.799 149.119 11.9596 149.049C12.2557 148.919 12.5618 148.812 12.8749 148.73C13.4708 148.58 14.0749 148.465 14.6842 148.385C15.8253 148.224 16.974 148.122 18.1257 148.081C20.0718 148.002 22.021 148.059 23.9592 148.251C25.2722 148.349 26.5694 148.599 27.8248 148.995C28.1755 149.104 28.4996 149.284 28.7768 149.525C28.9629 149.72 28.9354 149.887 28.9202 149.878Z" fill="#7C7A7D" stroke="#7C7A7D" stroke-width="0.5" stroke-miterlimit="10"/>
<path d="M39.0528 120.612C39.0528 120.612 39.0986 120.612 39.1413 120.658C39.1954 120.715 39.2536 120.768 39.3152 120.817C39.5339 120.987 39.7961 121.092 40.0719 121.121C40.2642 121.149 40.4603 121.137 40.6474 121.084C40.8345 121.032 41.0085 120.941 41.158 120.817C41.3146 120.673 41.416 120.479 41.4448 120.268C41.4688 120.032 41.4243 119.794 41.3167 119.583C41.2257 119.373 41.0765 119.194 40.8867 119.066C40.6969 118.939 40.4744 118.869 40.2458 118.863C40.0548 118.882 39.8715 118.948 39.7118 119.054C39.5522 119.16 39.4212 119.304 39.3305 119.473C39.1881 119.709 39.1142 119.98 39.1169 120.256C39.1169 120.457 39.1566 120.561 39.1169 120.591C39.0772 120.622 38.9949 120.512 38.9247 120.286C38.8391 119.96 38.8704 119.614 39.0132 119.308C39.1127 119.092 39.2573 118.898 39.4373 118.742C39.6532 118.554 39.9217 118.438 40.2061 118.409C40.5313 118.394 40.8535 118.477 41.1306 118.648C41.4077 118.819 41.6267 119.069 41.7591 119.366C41.913 119.668 41.9706 120.009 41.9238 120.344C41.873 120.664 41.7084 120.955 41.4601 121.164C41.2575 121.322 41.0212 121.432 40.7694 121.485C40.5176 121.538 40.2571 121.532 40.0078 121.469C39.676 121.403 39.3791 121.22 39.1718 120.954C39.1171 120.884 39.0767 120.804 39.0528 120.719C39.0345 120.658 39.0345 120.619 39.0528 120.612Z" fill="#7C7A7D" stroke="#7C7A7D" stroke-width="0.5" stroke-miterlimit="10"/>
<path d="M51.022 119.25C54.7998 119.25 57.8623 119.139 57.8623 119.001C57.8623 118.863 54.7998 118.751 51.022 118.751C47.2442 118.751 44.1816 118.863 44.1816 119.001C44.1816 119.139 47.2442 119.25 51.022 119.25Z" fill="#7C7A7D" stroke="#7C7A7D" stroke-width="0.5" stroke-miterlimit="10"/>
<path d="M55.7018 120.808C60.8175 120.808 64.9647 120.696 64.9647 120.558C64.9647 120.42 60.8175 120.308 55.7018 120.308C50.5861 120.308 46.439 120.42 46.439 120.558C46.439 120.696 50.5861 120.808 55.7018 120.808Z" fill="#7C7A7D" stroke="#7C7A7D" stroke-width="0.5" stroke-miterlimit="10"/>
<path d="M52.6696 125.308C59.745 125.308 65.4807 125.196 65.4807 125.058C65.4807 124.92 59.745 124.808 52.6696 124.808C45.5941 124.808 39.8584 124.92 39.8584 125.058C39.8584 125.196 45.5941 125.308 52.6696 125.308Z" fill="#7C7A7D" stroke="#7C7A7D" stroke-width="0.5" stroke-miterlimit="10"/>
<path d="M46.7748 127.733C50.5038 127.733 53.5267 127.621 53.5267 127.483C53.5267 127.345 50.5038 127.233 46.7748 127.233C43.0459 127.233 40.0229 127.345 40.0229 127.483C40.0229 127.621 43.0459 127.733 46.7748 127.733Z" fill="#7C7A7D" stroke="#7C7A7D" stroke-width="0.5" stroke-miterlimit="10"/>
<path d="M58.8842 131.463C58.8842 131.6 54.5457 131.712 49.1912 131.712C43.8367 131.712 39.4951 131.6 39.4951 131.463C39.4951 131.326 43.8336 131.216 49.1912 131.216C54.5488 131.216 58.8842 131.322 58.8842 131.463Z" fill="#7C7A7D" stroke="#7C7A7D" stroke-width="0.5" stroke-miterlimit="10"/>
<path d="M53.5266 135.284C53.5266 135.421 50.5427 135.53 46.8632 135.53C43.1837 135.53 40.1968 135.421 40.1968 135.284C40.1968 135.146 43.1807 135.034 46.8632 135.034C50.5458 135.034 53.5266 135.134 53.5266 135.284Z" fill="#7C7A7D" stroke="#7C7A7D" stroke-width="0.5" stroke-miterlimit="10"/>
<path d="M59.9367 140.119C59.9367 140.256 55.403 140.366 49.8074 140.366C44.2119 140.366 39.6812 140.256 39.6812 140.119C39.6812 139.982 44.2149 139.869 49.8074 139.869C55.3999 139.869 59.9367 139.982 59.9367 140.119Z" fill="#7C7A7D" stroke="#7C7A7D" stroke-width="0.5" stroke-miterlimit="10"/>
</g>
<defs>
<clipPath id="clip0_1313_29545">
<rect width="162.612" height="160" fill="white"/>
</clipPath>
</defs>
</svg>
