<svg width="24" height="24" viewBox="0 0 24 24" fill="none" xmlns="http://www.w3.org/2000/svg">
<path d="M17.9265 6.82353C17.9265 6.40932 17.5907 6.07353 17.1765 6.07353C16.7623 6.07353 16.4265 6.40932 16.4265 6.82353H17.9265ZM6.63235 6.82353C6.63235 6.40932 6.29657 6.07353 5.88235 6.07353C5.46814 6.07353 5.13235 6.40932 5.13235 6.82353H6.63235ZM13.6029 6.82353C13.6029 7.23774 13.9387 7.57353 14.3529 7.57353C14.7672 7.57353 15.1029 7.23774 15.1029 6.82353H13.6029ZM7.95588 6.82353C7.95588 7.23774 8.29167 7.57353 8.70588 7.57353C9.1201 7.57353 9.45588 7.23774 9.45588 6.82353H7.95588ZM4 6.07353C3.58579 6.07353 3.25 6.40932 3.25 6.82353C3.25 7.23774 3.58579 7.57353 4 7.57353V6.07353ZM19.0588 7.57353C19.473 7.57353 19.8088 7.23774 19.8088 6.82353C19.8088 6.40932 19.473 6.07353 19.0588 6.07353V7.57353ZM10.3971 10.5882C10.3971 10.174 10.0613 9.83824 9.64706 9.83824C9.23285 9.83824 8.89706 10.174 8.89706 10.5882H10.3971ZM8.89706 16.2353C8.89706 16.6495 9.23285 16.9853 9.64706 16.9853C10.0613 16.9853 10.3971 16.6495 10.3971 16.2353H8.89706ZM14.1618 10.5882C14.1618 10.174 13.826 9.83824 13.4118 9.83824C12.9976 9.83824 12.6618 10.174 12.6618 10.5882H14.1618ZM12.6618 16.2353C12.6618 16.6495 12.9976 16.9853 13.4118 16.9853C13.826 16.9853 14.1618 16.6495 14.1618 16.2353H12.6618ZM16.4265 6.82353V18.1176H17.9265V6.82353H16.4265ZM15.2941 19.25H7.76471V20.75H15.2941V19.25ZM6.63235 18.1176V6.82353H5.13235V18.1176H6.63235ZM7.76471 19.25C7.13932 19.25 6.63235 18.743 6.63235 18.1176H5.13235C5.13235 19.5715 6.3109 20.75 7.76471 20.75V19.25ZM16.4265 18.1176C16.4265 18.743 15.9195 19.25 15.2941 19.25V20.75C16.7479 20.75 17.9265 19.5715 17.9265 18.1176H16.4265ZM15.1029 6.82353V5.88235H13.6029V6.82353H15.1029ZM12.4706 3.25H10.5882V4.75H12.4706V3.25ZM7.95588 5.88235V6.82353H9.45588V5.88235H7.95588ZM10.5882 3.25C9.13443 3.25 7.95588 4.42854 7.95588 5.88235H9.45588C9.45588 5.25697 9.96285 4.75 10.5882 4.75V3.25ZM15.1029 5.88235C15.1029 4.42854 13.9244 3.25 12.4706 3.25V4.75C13.096 4.75 13.6029 5.25697 13.6029 5.88235H15.1029ZM4 7.57353H19.0588V6.07353H4V7.57353ZM8.89706 10.5882V16.2353H10.3971V10.5882H8.89706ZM12.6618 10.5882V16.2353H14.1618V10.5882H12.6618Z" fill="#FF3333"/>
</svg>
