<svg width="24" height="24" viewBox="0 0 24 24" fill="none" xmlns="http://www.w3.org/2000/svg">
<path d="M4 16.2353L3.46967 15.705L3.25 15.9246V16.2353H4ZM16.2353 4L16.7656 3.46967C16.4727 3.17678 15.9979 3.17678 15.705 3.46967L16.2353 4ZM20 7.76471L20.5303 8.29504C20.8232 8.00214 20.8232 7.52727 20.5303 7.23438L20 7.76471ZM7.76471 20V20.75H8.07537L8.29504 20.5303L7.76471 20ZM4 20H3.25C3.25 20.4142 3.58579 20.75 4 20.75V20ZM4.53033 16.7656L16.7656 4.53033L15.705 3.46967L3.46967 15.705L4.53033 16.7656ZM15.705 4.53033L19.4697 8.29504L20.5303 7.23438L16.7656 3.46967L15.705 4.53033ZM19.4697 7.23438L7.23438 19.4697L8.29504 20.5303L20.5303 8.29504L19.4697 7.23438ZM7.76471 19.25H4V20.75H7.76471V19.25ZM4.75 20V16.2353H3.25V20H4.75ZM12.8814 7.35386L16.6461 11.1186L17.7068 10.0579L13.9421 6.2932L12.8814 7.35386Z" fill="#7F1AFF"/>
</svg>
