<svg width="24" height="24" viewBox="0 0 24 24" fill="none" xmlns="http://www.w3.org/2000/svg">
<path d="M20 4H4V20H20V4Z" stroke="#7F1AFF" stroke-width="1.5" stroke-miterlimit="10"/>
<path d="M11.9985 15.5019C13.9426 15.5019 15.5185 13.926 15.5185 11.9819C15.5185 10.0379 13.9426 8.46191 11.9985 8.46191C10.0545 8.46191 8.47852 10.0379 8.47852 11.9819C8.47852 13.926 10.0545 15.5019 11.9985 15.5019Z" stroke="#7F1AFF" stroke-width="1.5" stroke-miterlimit="10"/>
<path d="M16.7182 8.30266C17.2926 8.30266 17.7582 7.83703 17.7582 7.26266C17.7582 6.68828 17.2926 6.22266 16.7182 6.22266C16.1438 6.22266 15.6782 6.68828 15.6782 7.26266C15.6782 7.83703 16.1438 8.30266 16.7182 8.30266Z" fill="#7F1AFF"/>
</svg>
