<svg width="19" height="18" viewBox="0 0 19 18" fill="none" xmlns="http://www.w3.org/2000/svg">
<path d="M7 0.25C7.41421 0.25 7.75 0.585787 7.75 1C7.75 1.41421 7.41421 1.75 7 1.75V0.25ZM1 3H0.25H1ZM1 15H1.75H1ZM3 17V17.75V17ZM7 16.25C7.41421 16.25 7.75 16.5858 7.75 17C7.75 17.4142 7.41421 17.75 7 17.75V16.25ZM18 9L18.5303 8.46967C18.8232 8.76256 18.8232 9.23744 18.5303 9.53033L18 9ZM6 9.75C5.58579 9.75 5.25 9.41422 5.25 9C5.25 8.58579 5.58579 8.25 6 8.25V9.75ZM13.4697 5.53033C13.1768 5.23744 13.1768 4.76256 13.4697 4.46967C13.7626 4.17678 14.2374 4.17678 14.5303 4.46967L13.4697 5.53033ZM14.5303 13.5303C14.2374 13.8232 13.7626 13.8232 13.4697 13.5303C13.1768 13.2374 13.1768 12.7626 13.4697 12.4697L14.5303 13.5303ZM7 1.75L3 1.75V0.25L7 0.25V1.75ZM1.75 3V15H0.25V3H1.75ZM3 16.25H7V17.75H3V16.25ZM1.75 15C1.75 15.6904 2.30964 16.25 3 16.25V17.75C1.48122 17.75 0.25 16.5188 0.25 15H1.75ZM3 1.75C2.30964 1.75 1.75 2.30964 1.75 3H0.25C0.25 1.48122 1.48122 0.25 3 0.25V1.75ZM18 9.75L6 9.75V8.25L18 8.25L18 9.75ZM14.5303 4.46967L18.5303 8.46967L17.4697 9.53033L13.4697 5.53033L14.5303 4.46967ZM18.5303 9.53033L14.5303 13.5303L13.4697 12.4697L17.4697 8.46967L18.5303 9.53033Z" fill="#7C7A7D"/>
</svg>
