<svg width="24" height="18" viewBox="0 0 24 18" fill="none" xmlns="http://www.w3.org/2000/svg">
<path d="M22.9655 3.3468C23.5254 2.81356 23.547 1.92739 23.0138 1.36749C22.4806 0.807587 21.5944 0.785975 21.0345 1.31922L22.9655 3.3468ZM8.00005 15.6663L7.03453 16.6801C7.57522 17.1951 8.42488 17.1951 8.96556 16.6801L8.00005 15.6663ZM2.96552 8.93824C2.40561 8.405 1.51944 8.42662 0.986205 8.98652C0.452966 9.54642 0.474581 10.4326 1.03448 10.9658L2.96552 8.93824ZM21.0345 1.31922L7.03453 14.6526L8.96556 16.6801L22.9655 3.3468L21.0345 1.31922ZM1.03448 10.9658L7.03453 16.6801L8.96556 14.6525L2.96552 8.93824L1.03448 10.9658Z" fill="white"/>
</svg>
