<svg width="24" height="24" viewBox="0 0 24 24" fill="none" xmlns="http://www.w3.org/2000/svg">
<path fill-rule="evenodd" clip-rule="evenodd" d="M8 15.2H16C18.2091 15.2 20 16.9909 20 19.2C20 19.6418 19.6418 20 19.2 20C18.7897 20 18.4516 19.6912 18.4054 19.2933L18.3959 19.059C18.3256 17.8458 17.3542 16.8744 16.141 16.8041L16 16.8H8C6.67452 16.8 5.6 17.8745 5.6 19.2C5.6 19.6418 5.24183 20 4.8 20C4.35817 20 4 19.6418 4 19.2C4 17.049 5.69785 15.2945 7.82649 15.2037L8 15.2H16H8ZM12 4C14.651 4 16.8 6.14903 16.8 8.8C16.8 11.451 14.651 13.6 12 13.6C9.34903 13.6 7.2 11.451 7.2 8.8C7.2 6.14903 9.34903 4 12 4ZM12 5.6C10.2327 5.6 8.8 7.03269 8.8 8.8C8.8 10.5673 10.2327 12 12 12C13.7673 12 15.2 10.5673 15.2 8.8C15.2 7.03269 13.7673 5.6 12 5.6Z" fill="#141414"/>
</svg>
