<svg width="20" height="14" viewBox="0 0 20 14" fill="none" xmlns="http://www.w3.org/2000/svg">
<path d="M19 4H19.75C19.75 3.58579 19.4142 3.25 19 3.25V4ZM19 10V10.75C19.4142 10.75 19.75 10.4142 19.75 10H19ZM12.75 7.00002C12.75 6.5858 12.4142 6.25002 12 6.25002C11.5858 6.25002 11.25 6.5858 11.25 7.00002H12.75ZM11.25 7.01001C11.25 7.42422 11.5858 7.76001 12 7.76001C12.4142 7.76001 12.75 7.42422 12.75 7.01001H11.25ZM3 1.75H17V0.25H3V1.75ZM18.25 3V11H19.75V3H18.25ZM17 12.25H3V13.75H17V12.25ZM1.75 11V3H0.25V11H1.75ZM3 12.25C2.30964 12.25 1.75 11.6904 1.75 11H0.25C0.25 12.5188 1.48122 13.75 3 13.75V12.25ZM18.25 11C18.25 11.6904 17.6904 12.25 17 12.25V13.75C18.5188 13.75 19.75 12.5188 19.75 11H18.25ZM17 1.75C17.6904 1.75 18.25 2.30964 18.25 3H19.75C19.75 1.48122 18.5188 0.25 17 0.25V1.75ZM3 0.25C1.48122 0.25 0.25 1.48122 0.25 3H1.75C1.75 2.30964 2.30964 1.75 3 1.75V0.25ZM12 4.75H19V3.25H12V4.75ZM18.25 4V10H19.75V4H18.25ZM19 9.25H12V10.75H19V9.25ZM12 9.25C10.7574 9.25 9.75 8.24264 9.75 7H8.25C8.25 9.07107 9.92893 10.75 12 10.75V9.25ZM12 3.25C9.92893 3.25 8.25 4.92893 8.25 7H9.75C9.75 5.75736 10.7574 4.75 12 4.75V3.25ZM11.25 7.00002V7.01001H12.75V7.00002H11.25Z" fill="#C0BBCA"/>
</svg>
